<svg xmlns="http://www.w3.org/2000/svg" version="1.1" xmlns:xlink="http://www.w3.org/1999/xlink" xmlns:svgjs="http://svgjs.dev/svgjs" width="1500" height="960" viewBox="0 0 1500 960"><g transform="matrix(1,0,0,1,0.15999999999996817,0.681995691982479)"><svg viewBox="0 0 375 240" data-background-color="#000000" preserveAspectRatio="xMidYMid meet" height="960" width="1500" xmlns="http://www.w3.org/2000/svg" xmlns:xlink="http://www.w3.org/1999/xlink"><g id="tight-bounds" transform="matrix(1,0,0,1,-0.03976000000000113,-0.17035892299563216)"><svg viewBox="0 0 375.07953 240.34085784599125" height="240.34085784599125" width="375.07953"><g><svg></svg></g><g><svg viewBox="0 0 375.07953 240.34085784599125" height="240.34085784599125" width="375.07953"><g transform="matrix(1,0,0,1,-10.22024,-6.8591399999999965)"><path d="M10.22 240.341v-233.482h375.08v233.482h-19.12v-3.405h15.715v-226.672h-368.27v226.672l24.287 0 0 3.405z" fill="#e33e33" fill-rule="nonzero" stroke="none" stroke-width="1" stroke-linecap="butt" stroke-linejoin="miter" stroke-miterlimit="10" stroke-dasharray="" stroke-dashoffset="0" font-family="none" font-weight="none" font-size="none" text-anchor="none" style="mix-blend-mode: normal" data-fill-palette-color="tertiary"></path><g><path transform="translate(46.97021,246.18882) scale(0.38792,0.38792)" d="M24.37-23.54v0c-0.293 0.62-0.693 1.207-1.2 1.76-0.507 0.553-0.987 1.077-1.44 1.57v0c-0.36 0.353-0.67 0.743-0.93 1.17-0.26 0.42-0.553 0.81-0.88 1.17v0c-0.26 0.293-0.52 0.56-0.78 0.8-0.26 0.247-0.503 0.517-0.73 0.81v0c-0.167 0.133-0.323 0.263-0.47 0.39-0.147 0.133-0.283 0.297-0.41 0.49v0c0.487 1.04 1.063 1.983 1.73 2.83 0.667 0.847 1.36 1.693 2.08 2.54v0c0.36 0.42 0.717 0.82 1.07 1.2 0.36 0.373 0.67 0.77 0.93 1.19v0c0.227 0.493 0.463 0.86 0.71 1.1 0.24 0.247 0.46 0.5 0.66 0.76v0c0.193 0.327 0.363 0.61 0.51 0.85 0.147 0.247 0.35 0.483 0.61 0.71v0c0 0.16 0.097 0.313 0.29 0.46 0.2 0.147 0.33 0.303 0.39 0.47v0c0 0.16 0.01 0.29 0.03 0.39 0.013 0.1 0.02 0.18 0.02 0.24v0c-0.093 0.26-0.263 0.48-0.51 0.66-0.247 0.18-0.467 0.367-0.66 0.56v0c-0.327 0-0.603 0.1-0.83 0.3-0.227 0.193-0.537 0.29-0.93 0.29v0c-0.16 0.133-0.29 0.27-0.39 0.41-0.093 0.147-0.223 0.287-0.39 0.42v0c-0.26 0-0.497 0.073-0.71 0.22-0.207 0.147-0.44 0.253-0.7 0.32v0c-0.327-0.2-0.59-0.453-0.79-0.76-0.193-0.307-0.453-0.543-0.78-0.71v0c-0.033-0.16-0.09-0.297-0.17-0.41-0.08-0.113-0.153-0.237-0.22-0.37v0c-0.553-0.62-1.073-1.27-1.56-1.95-0.487-0.687-0.973-1.37-1.46-2.05v0c-0.267-0.293-0.537-0.58-0.81-0.86-0.28-0.273-0.55-0.573-0.81-0.9v0c-0.16-0.193-0.32-0.42-0.48-0.68-0.167-0.26-0.347-0.507-0.54-0.74v0c-0.227-0.193-0.423-0.42-0.59-0.68-0.16-0.26-0.353-0.473-0.58-0.64v0c-0.293 0.167-0.553 0.38-0.78 0.64-0.233 0.26-0.497 0.487-0.79 0.68v0c-0.26 0.233-0.51 0.463-0.75 0.69-0.247 0.227-0.5 0.437-0.76 0.63v0c-0.067 0.747-0.1 1.47-0.1 2.17 0 0.7 0 1.393 0 2.08v0c0 0.553-0.007 1.083-0.02 1.59-0.02 0.5-0.093 1.01-0.22 1.53v0c-0.167 0.033-0.323-0.053-0.47-0.26-0.147-0.213-0.3-0.337-0.46-0.37v0c-0.127 0.033-0.233 0.1-0.32 0.2-0.08 0.093-0.2 0.107-0.36 0.04v0c-0.167 0.167-0.413 0.313-0.74 0.44v0c-0.16 0-0.337 0.027-0.53 0.08-0.2 0.047-0.38 0.07-0.54 0.07v0c-0.26 0-0.44-0.033-0.54-0.1v0c-0.32 0.227-0.587 0.35-0.8 0.37-0.213 0.013-0.383 0.02-0.51 0.02v0c-0.067-0.227-0.133-0.447-0.2-0.66-0.067-0.207-0.117-0.44-0.15-0.7v0c-0.093-0.133-0.167-0.28-0.22-0.44-0.047-0.167-0.103-0.33-0.17-0.49v0c0.033-0.1 0.05-0.213 0.05-0.34 0-0.133 0-0.263 0-0.39v0c0-0.553-0.017-1.093-0.05-1.62-0.033-0.52-0.017-1.057 0.05-1.61v0c-0.067-0.16-0.113-0.323-0.14-0.49-0.033-0.16-0.05-0.32-0.05-0.48v0c0-0.1 0.007-0.217 0.02-0.35 0.02-0.127 0.06-0.223 0.12-0.29v0c-0.093-0.42-0.15-0.867-0.17-1.34-0.013-0.473-0.02-0.92-0.02-1.34v0c0-0.233 0.023-0.47 0.07-0.71 0.047-0.247 0.07-0.5 0.07-0.76v0c0-0.553-0.03-1.09-0.09-1.61-0.067-0.52-0.1-1.04-0.1-1.56v0c0.033-0.36 0.05-0.637 0.05-0.83v0c0-0.2 0.017-0.397 0.05-0.59 0.033-0.193 0.017-0.387-0.05-0.58v0c0.033-0.167 0.073-0.29 0.12-0.37 0.047-0.08 0.07-0.203 0.07-0.37v0c0-0.42 0.01-0.833 0.03-1.24 0.013-0.407 0.02-0.84 0.02-1.3v0c0-0.32 0.01-0.637 0.03-0.95 0.013-0.307 0.02-0.64 0.02-1v0c0-0.293 0.023-0.57 0.07-0.83 0.053-0.26 0.097-0.52 0.13-0.78v0c0.027-0.293 0.04-0.577 0.04-0.85 0-0.28 0-0.55 0-0.81v0c0-0.687 0-1.38 0-2.08 0-0.7-0.03-1.39-0.09-2.07v0c-0.033-0.167-0.067-0.347-0.1-0.54-0.033-0.193-0.05-0.387-0.05-0.58v0c-0.067-0.62-0.117-1.257-0.15-1.91-0.027-0.647-0.09-1.297-0.19-1.95v0c0.067-0.1 0.1-0.207 0.1-0.32 0-0.113 0-0.22 0-0.32v0c0-0.16 0-0.313 0-0.46 0-0.147-0.017-0.3-0.05-0.46v0c0.067-0.067 0.13-0.14 0.19-0.22 0.067-0.087 0.133-0.16 0.2-0.22v0c0.193 0 0.397 0.007 0.61 0.02 0.213 0.02 0.4 0.093 0.56 0.22v0c0.16-0.067 0.347-0.14 0.56-0.22 0.213-0.08 0.4-0.12 0.56-0.12v0c0.26 0 0.457 0.063 0.59 0.19v0c0.16-0.06 0.25-0.133 0.27-0.22 0.013-0.08 0.133-0.12 0.36-0.12v0c0.427-0.033 0.73-0.05 0.91-0.05 0.18 0 0.35-0.017 0.51-0.05v0c0.1 0.067 0.18 0.15 0.24 0.25 0.067 0.1 0.133 0.197 0.2 0.29v0c0.713 0.26 1.29 0.627 1.73 1.1 0.44 0.473 0.937 0.873 1.49 1.2v0c0.133 0.093 0.263 0.173 0.39 0.24 0.133 0.067 0.263 0.133 0.39 0.2v0c0.293 0.193 0.587 0.403 0.88 0.63 0.293 0.227 0.603 0.423 0.93 0.59v0c0.327 0.16 0.513 0.25 0.56 0.27 0.047 0.013 0.087 0.053 0.12 0.12v0c0.72 0.26 1.363 0.61 1.93 1.05 0.573 0.44 1.183 0.837 1.83 1.19v0c0.227 0.133 0.513 0.263 0.86 0.39 0.34 0.133 0.68 0.273 1.02 0.42 0.347 0.147 0.673 0.3 0.98 0.46 0.307 0.167 0.543 0.347 0.71 0.54v0c0.353 0.36 0.67 0.613 0.95 0.76 0.273 0.147 0.543 0.317 0.81 0.51v0l0.04 1.32c0 0.227-0.023 0.437-0.07 0.63-0.047 0.2-0.07 0.413-0.07 0.64v0c0 0.16 0.033 0.337 0.1 0.53zM17.68-24.8v0c-0.36-0.2-0.72-0.39-1.08-0.57-0.36-0.173-0.67-0.423-0.93-0.75v0c-0.227-0.067-0.633-0.223-1.22-0.47-0.587-0.24-1.18-0.5-1.78-0.78-0.6-0.273-1.153-0.517-1.66-0.73-0.507-0.213-0.79-0.32-0.85-0.32v0c-0.1 0.033-0.15 0.247-0.15 0.64 0 0.387 0 0.81 0 1.27 0 0.453 0 0.89 0 1.31 0 0.427 0 0.69 0 0.79v0c0 0.613-0.017 1.213-0.05 1.8-0.033 0.587-0.083 1.19-0.15 1.81v0c-0.06 0.1-0.107 0.19-0.14 0.27-0.033 0.08-0.067 0.17-0.1 0.27v0c-0.067 0.453-0.1 1.053-0.1 1.8 0 0.753 0 1.357 0 1.81v0c0 0.227 0 0.437 0 0.63 0 0.2 0.017 0.43 0.05 0.69v0c0.167 0 0.28-0.04 0.34-0.12 0.067-0.087 0.183-0.16 0.35-0.22v0c0.42-0.46 0.84-0.9 1.26-1.32 0.427-0.427 0.867-0.867 1.32-1.32v0c0.2-0.193 0.397-0.407 0.59-0.64 0.193-0.227 0.403-0.42 0.63-0.58v0c0.167-0.193 0.313-0.38 0.44-0.56 0.133-0.18 0.28-0.353 0.44-0.52v0c0.46-0.487 0.933-0.967 1.42-1.44 0.487-0.467 0.893-0.993 1.22-1.58v0c0.227-0.167 0.437-0.427 0.63-0.78v0c-0.227-0.033-0.387-0.163-0.48-0.39zM56.74-12.79v0c0.067 0.16 0.303 0.5 0.71 1.02 0.407 0.52 0.87 1.09 1.39 1.71 0.527 0.62 1.023 1.213 1.49 1.78 0.473 0.573 0.807 0.99 1 1.25v0c0.36 0.453 0.71 0.9 1.05 1.34 0.347 0.44 0.667 0.903 0.96 1.39v0l0.88 1.47c0.26 0.327 0.493 0.603 0.7 0.83 0.213 0.227 0.387 0.537 0.52 0.93v0c0.06 0.26 0.09 0.437 0.09 0.53v0c0 0.227-0.08 0.39-0.24 0.49v0c-0.26 0-0.4 0.04-0.42 0.12-0.013 0.087-0.087 0.16-0.22 0.22v0c-0.127 0.067-0.33 0.11-0.61 0.13-0.273 0.013-0.493 0.02-0.66 0.02v0c-0.287 0-0.65-0.007-1.09-0.02-0.44-0.02-0.79 0.02-1.05 0.12v0c-0.067 0.033-0.167 0.08-0.3 0.14-0.127 0.067-0.223 0.1-0.29 0.1v0c-0.26 0-0.447-0.04-0.56-0.12-0.113-0.08-0.267-0.137-0.46-0.17v0c-0.267-0.293-0.487-0.597-0.66-0.91-0.18-0.307-0.383-0.623-0.61-0.95v0c-0.233-0.227-0.463-0.43-0.69-0.61-0.227-0.18-0.42-0.383-0.58-0.61v0c-0.493-0.713-1-1.413-1.52-2.1-0.52-0.68-1.057-1.347-1.61-2v0c-0.26-0.36-0.537-0.687-0.83-0.98-0.293-0.293-0.57-0.617-0.83-0.97v0c-0.26-0.327-0.503-0.677-0.73-1.05-0.227-0.373-0.457-0.74-0.69-1.1v0c-0.193-0.293-0.453-0.677-0.78-1.15-0.32-0.473-0.677-0.943-1.07-1.41-0.393-0.473-0.783-0.923-1.17-1.35-0.393-0.42-0.72-0.743-0.98-0.97v0c-0.033-0.2-0.113-0.357-0.24-0.47-0.133-0.113-0.28-0.22-0.44-0.32v0c-0.067-0.16-0.14-0.313-0.22-0.46-0.08-0.147-0.12-0.3-0.12-0.46v0c0-0.227 0.047-0.44 0.14-0.64v0c0.067-0.127 0.107-0.247 0.12-0.36 0.02-0.113 0.063-0.237 0.13-0.37v0c0.16-0.36 0.38-0.71 0.66-1.05 0.273-0.34 0.49-0.707 0.65-1.1v0c0.067-0.093 0.1-0.2 0.1-0.32 0-0.113 0.033-0.217 0.1-0.31v0c0.067-0.26 0.207-0.48 0.42-0.66 0.207-0.18 0.377-0.383 0.51-0.61v0c0.16-0.26 0.313-0.53 0.46-0.81 0.147-0.273 0.303-0.573 0.47-0.9v0c0.487-0.813 0.997-1.603 1.53-2.37 0.54-0.767 1.087-1.54 1.64-2.32v0c0.42-0.653 0.833-1.28 1.24-1.88 0.407-0.6 0.823-1.21 1.25-1.83v0c0.227-0.293 0.47-0.637 0.73-1.03 0.26-0.387 0.547-0.777 0.86-1.17 0.307-0.387 0.623-0.743 0.95-1.07 0.327-0.327 0.653-0.587 0.98-0.78v0c0.487-0.033 0.81 0.07 0.97 0.31 0.167 0.247 0.41 0.37 0.73 0.37v0c0.427 0.1 0.703 0.23 0.83 0.39 0.133 0.167 0.28 0.33 0.44 0.49v0c0.46 0 0.827 0.08 1.1 0.24 0.28 0.167 0.55 0.413 0.81 0.74v0c-0.1 0.353-0.247 0.67-0.44 0.95-0.193 0.273-0.373 0.557-0.54 0.85v0c-0.26 0.133-0.447 0.313-0.56 0.54-0.113 0.227-0.283 0.407-0.51 0.54v0c-0.327 0.553-0.67 1.08-1.03 1.58-0.36 0.507-0.717 1.003-1.07 1.49v0c-0.2 0.293-0.403 0.553-0.61 0.78-0.213 0.233-0.4 0.48-0.56 0.74v0c-0.067 0.093-0.127 0.197-0.18 0.31-0.047 0.12-0.103 0.227-0.17 0.32v0c-0.387 0.62-0.81 1.2-1.27 1.74-0.453 0.533-0.877 1.127-1.27 1.78v0c-0.127 0.227-0.23 0.463-0.31 0.71-0.08 0.24-0.187 0.473-0.32 0.7v0c-0.133 0.2-0.32 0.46-0.56 0.78-0.247 0.327-0.483 0.677-0.71 1.05-0.227 0.38-0.43 0.74-0.61 1.08-0.18 0.34-0.27 0.623-0.27 0.85v0c0.033 0.167 0.237 0.487 0.61 0.96 0.373 0.467 0.797 0.97 1.27 1.51 0.473 0.533 0.92 1.037 1.34 1.51 0.427 0.473 0.703 0.76 0.83 0.86zM59.97-21.68v0c0.227 0.487 0.47 0.91 0.73 1.27v0c0.1 0.133 0.213 0.247 0.34 0.34 0.133 0.1 0.23 0.23 0.29 0.39v0c0.067 0.067 0.133 0.207 0.2 0.42 0.067 0.207 0.13 0.36 0.19 0.46v0c0.1 0.26 0.297 0.553 0.59 0.88 0.293 0.327 0.44 0.62 0.44 0.88v0c0 0.16-0.033 0.34-0.1 0.54-0.067 0.193-0.113 0.37-0.14 0.53v0c-0.033 0.2-0.05 0.403-0.05 0.61 0 0.213-0.067 0.403-0.2 0.57v0c-0.16 0.16-0.34 0.257-0.54 0.29-0.193 0.033-0.37 0.113-0.53 0.24v0c-0.067 0.067-0.167 0.18-0.3 0.34-0.127 0.167-0.257 0.347-0.39 0.54-0.127 0.193-0.247 0.38-0.36 0.56-0.113 0.18-0.17 0.32-0.17 0.42v0c-0.393 0.033-0.647 0.04-0.76 0.02-0.113-0.013-0.237-0.003-0.37 0.03v0c-0.16-0.167-0.33-0.307-0.51-0.42-0.18-0.113-0.4-0.22-0.66-0.32v0c-0.067-0.26-0.213-0.56-0.44-0.9-0.227-0.34-0.42-0.623-0.58-0.85v0l-0.35-0.44c-0.487-0.687-0.933-1.347-1.34-1.98-0.407-0.633-0.707-1.34-0.9-2.12v0c0.62-0.46 1.1-0.803 1.44-1.03 0.34-0.227 0.707-0.437 1.1-0.63 0.387-0.2 0.77-0.39 1.15-0.57 0.373-0.18 0.723-0.4 1.05-0.66v0c0.26 0 0.437 0.017 0.53 0.05 0.1 0.033 0.167 0.067 0.2 0.1 0.033 0.033 0.073 0.09 0.12 0.17 0.047 0.08 0.153 0.17 0.32 0.27zM98.55-37.01l0.09 0.05c0.167 0.587 0.33 1.163 0.49 1.73 0.167 0.567 0.363 1.13 0.59 1.69v0c0.487 0.06 0.787 0.107 0.9 0.14 0.113 0.033 0.253 0.083 0.42 0.15v0c0.353 0.847 0.573 1.75 0.66 2.71 0.08 0.96 0.2 1.897 0.36 2.81v0c0.62 0.813 1.07 1.683 1.35 2.61 0.273 0.927 0.59 1.863 0.95 2.81v0c0.093 0.32 0.157 0.523 0.19 0.61 0.033 0.08 0.05 0.153 0.05 0.22v0c0.193 0.553 0.39 1.12 0.59 1.7 0.193 0.587 0.403 1.157 0.63 1.71v0c0.1 0.293 0.207 0.58 0.32 0.86 0.113 0.273 0.22 0.54 0.32 0.8v0c0.093 0.327 0.183 0.66 0.27 1 0.08 0.347 0.167 0.683 0.26 1.01v0c0.233 0.647 0.48 1.297 0.74 1.95 0.26 0.653 0.52 1.303 0.78 1.95v0c0.093 0.227 0.28 0.733 0.56 1.52 0.273 0.78 0.557 1.6 0.85 2.46 0.293 0.867 0.563 1.663 0.81 2.39 0.247 0.733 0.37 1.183 0.37 1.35v0c0 0.26 0.023 0.527 0.07 0.8 0.047 0.28 0.087 0.567 0.12 0.86v0c-0.127 0.327-0.29 0.503-0.49 0.53-0.193 0.033-0.37 0.02-0.53-0.04v0c-0.167 0.06-0.323 0.123-0.47 0.19-0.147 0.067-0.283 0.133-0.41 0.2v0c-0.1 0.027-0.183 0.073-0.25 0.14-0.06 0.067-0.14 0.1-0.24 0.1v0c-0.393 0-0.647 0.04-0.76 0.12-0.113 0.08-0.283 0.12-0.51 0.12v0c-0.293-0.093-0.48-0.1-0.56-0.02-0.08 0.08-0.153 0.137-0.22 0.17v0c-0.133 0.067-0.28 0.1-0.44 0.1-0.167 0-0.33 0.017-0.49 0.05v0c-0.067-0.133-0.123-0.263-0.17-0.39-0.047-0.133-0.12-0.28-0.22-0.44v0c-0.36-0.52-0.613-1.027-0.76-1.52-0.147-0.487-0.267-0.877-0.36-1.17v0c-0.167-0.36-0.307-0.717-0.42-1.07-0.113-0.36-0.25-0.72-0.41-1.08v0c-0.2 0.067-0.38 0.14-0.54 0.22-0.16 0.08-0.29 0.187-0.39 0.32v0c-0.393 0-0.59 0.05-0.59 0.15 0 0.093-0.03 0.19-0.09 0.29v0c-0.2 0.067-0.357 0.13-0.47 0.19-0.113 0.067-0.3 0.083-0.56 0.05v0c-0.16 0.167-0.323 0.307-0.49 0.42-0.16 0.113-0.37 0.187-0.63 0.22v0c-0.26 0.26-0.53 0.48-0.81 0.66-0.273 0.18-0.59 0.22-0.95 0.12v0c-0.453 0.1-0.91 0.19-1.37 0.27-0.453 0.08-0.91 0.12-1.37 0.12v0c-0.52-0.16-0.843-0.307-0.97-0.44-0.133-0.127-0.33-0.19-0.59-0.19v0c0.033-0.46-0.063-0.77-0.29-0.93v0c0-0.1 0.007-0.257 0.02-0.47 0.02-0.207 0.063-0.343 0.13-0.41v0c0.42-0.193 0.663-0.407 0.73-0.64 0.067-0.227 0.247-0.373 0.54-0.44v0c0.06-0.127 0.13-0.247 0.21-0.36 0.087-0.113 0.16-0.237 0.22-0.37v0c0.167-0.067 0.307-0.113 0.42-0.14 0.113-0.033 0.203-0.133 0.27-0.3v0c0.16 0 0.403-0.103 0.73-0.31 0.327-0.213 0.54-0.387 0.64-0.52v0c0.26-0.093 0.42-0.183 0.48-0.27 0.067-0.08 0.15-0.153 0.25-0.22v0c0.327 0.033 0.537 0.003 0.63-0.09v0c0.26 0.127 0.553 0.19 0.88 0.19v0c0.133 0 0.247-0.007 0.34-0.02 0.1-0.02 0.217-0.03 0.35-0.03v0c0.26-0.26 0.593-0.43 1-0.51 0.407-0.08 0.74-0.25 1-0.51v0c-0.1-0.26-0.183-0.577-0.25-0.95-0.06-0.38-0.173-0.683-0.34-0.91v0c-0.067-0.42-0.173-0.827-0.32-1.22-0.147-0.387-0.267-0.76-0.36-1.12v0c-0.36-1.367-0.783-2.703-1.27-4.01-0.487-1.3-0.893-2.633-1.22-4v0c-0.067-0.16-0.14-0.33-0.22-0.51-0.08-0.18-0.153-0.35-0.22-0.51v0c-0.167 0.387-0.25 0.603-0.25 0.65 0 0.053-0.03 0.113-0.09 0.18v0c-0.033 0.16-0.067 0.297-0.1 0.41-0.033 0.113-0.083 0.253-0.15 0.42v0c-0.093 0.26-0.183 0.543-0.27 0.85-0.08 0.307-0.153 0.59-0.22 0.85v0c-0.16 0.553-0.307 1.133-0.44 1.74-0.127 0.6-0.273 1.193-0.44 1.78v0c-0.32 1.007-0.653 2.007-1 3-0.34 0.993-0.673 1.997-1 3.01v0c-0.06 0.453-0.133 0.803-0.22 1.05-0.08 0.24-0.16 0.483-0.24 0.73-0.08 0.24-0.147 0.477-0.2 0.71-0.047 0.227-0.07 0.403-0.07 0.53v0c-0.453 1.047-0.837 2.107-1.15 3.18-0.307 1.073-0.687 2.113-1.14 3.12v0c-0.133 0.067-0.25 0.15-0.35 0.25-0.093 0.093-0.207 0.14-0.34 0.14v0c-0.26 0-0.397-0.063-0.41-0.19-0.02-0.133-0.093-0.2-0.22-0.2v0c-0.133 0-0.247 0.027-0.34 0.08-0.1 0.047-0.2 0.103-0.3 0.17v0c-0.16-0.067-0.347-0.11-0.56-0.13-0.213-0.013-0.367-0.087-0.46-0.22v0c-0.227 0.167-0.457 0.25-0.69 0.25v0c-0.26 0-0.52-0.083-0.78-0.25v0c-0.193 0.067-0.387 0.1-0.58 0.1v0c-0.1 0-0.217-0.017-0.35-0.05-0.127-0.033-0.223-0.08-0.29-0.14v0c-0.033-0.133-0.05-0.263-0.05-0.39 0-0.133 0-0.28 0-0.44v0c0-0.327-0.033-0.573-0.1-0.74v0c0.587-1.66 1.157-3.343 1.71-5.05 0.553-1.707 1.107-3.44 1.66-5.2v0c0.293-0.813 0.58-1.61 0.86-2.39 0.273-0.78 0.54-1.577 0.8-2.39v0c0.133-0.46 0.25-0.893 0.35-1.3 0.093-0.407 0.223-0.803 0.39-1.19v0c0.26-0.847 0.527-1.703 0.8-2.57 0.28-0.86 0.533-1.713 0.76-2.56v0c0.127-0.1 0.207-0.213 0.24-0.34 0.033-0.133 0.083-0.28 0.15-0.44v0l-0.05-0.64c0.227-0.327 0.38-0.61 0.46-0.85 0.087-0.247 0.147-0.5 0.18-0.76v0c0.16-0.393 0.307-0.817 0.44-1.27 0.127-0.453 0.223-0.877 0.29-1.27v0c0.067-0.52 0.107-1.113 0.12-1.78 0.013-0.667 0.103-1.227 0.27-1.68v0c0.067-0.133 0.123-0.223 0.17-0.27 0.047-0.053 0.07-0.16 0.07-0.32v0c0.067-0.067 0.14-0.14 0.22-0.22 0.08-0.08 0.137-0.17 0.17-0.27v0c0.167-0.26 0.223-0.487 0.17-0.68-0.047-0.2-0.07-0.413-0.07-0.64v0c0.293-0.16 0.423-0.307 0.39-0.44-0.033-0.127-0.05-0.257-0.05-0.39v0c0-0.16 0.107-0.313 0.32-0.46 0.213-0.147 0.353-0.303 0.42-0.47v0c0.193 0.033 0.387 0.06 0.58 0.08 0.193 0.013 0.39 0.003 0.59-0.03v0c0.227 0.427 0.503 0.64 0.83 0.64zM152.65-8.35v0c0.233 0.293 0.373 0.53 0.42 0.71 0.047 0.18 0.103 0.36 0.17 0.54 0.067 0.173 0.123 0.343 0.17 0.51 0.053 0.16 0.08 0.257 0.08 0.29v0c0 0.227-0.043 0.413-0.13 0.56-0.08 0.147-0.2 0.333-0.36 0.56v0c-1.307 0.493-2.593 0.973-3.86 1.44-1.267 0.473-2.57 0.94-3.91 1.4v0c-0.353 0.093-0.677 0.197-0.97 0.31-0.293 0.113-0.62 0.203-0.98 0.27v0c-0.067 0.067-0.173 0.123-0.32 0.17-0.147 0.053-0.317 0.11-0.51 0.17-0.193 0.067-0.38 0.123-0.56 0.17-0.18 0.053-0.303 0.08-0.37 0.08v0c-0.26 0.067-0.543 0.09-0.85 0.07-0.313-0.013-0.617-0.003-0.91 0.03v0c-0.16 0.027-0.273 0.107-0.34 0.24-0.067 0.133-0.14 0.27-0.22 0.41-0.08 0.147-0.2 0.28-0.36 0.4-0.167 0.113-0.397 0.17-0.69 0.17v0c-0.293 0-0.587-0.017-0.88-0.05-0.293-0.033-0.6-0.117-0.92-0.25v0c-0.067-0.093-0.093-0.213-0.08-0.36 0.02-0.147-0.003-0.27-0.07-0.37v0c-0.293-0.033-0.52-0.01-0.68 0.07-0.167 0.087-0.33 0.147-0.49 0.18v0c-0.1-0.133-0.173-0.29-0.22-0.47-0.047-0.18-0.137-0.333-0.27-0.46v0c-0.033-0.167-0.05-0.33-0.05-0.49 0-0.16 0-0.323 0-0.49v0c0-0.227 0.01-0.493 0.03-0.8 0.013-0.313 0.07-0.55 0.17-0.71v0c0.093-1.86 0.14-3.717 0.14-5.57 0-1.853 0-3.71 0-5.57v0c0-0.193 0-0.443 0-0.75 0-0.313-0.007-0.63-0.02-0.95-0.02-0.327-0.037-0.63-0.05-0.91-0.013-0.273-0.037-0.477-0.07-0.61v0c0.033-0.227 0.05-0.447 0.05-0.66 0-0.207 0-0.427 0-0.66v0c0-0.193 0-0.37 0-0.53 0-0.167-0.033-0.33-0.1-0.49v0c0.033-0.133 0.05-0.313 0.05-0.54v0c0-0.16-0.017-0.323-0.05-0.49-0.033-0.16-0.05-0.323-0.05-0.49v0c0-0.26 0.007-0.51 0.02-0.75 0.02-0.247 0.03-0.5 0.03-0.76v0c0-0.847-0.04-1.683-0.12-2.51-0.087-0.833-0.13-1.673-0.13-2.52v0c0-1.107-0.007-2.213-0.02-3.32-0.02-1.107-0.043-2.213-0.07-3.32v0c0.127-0.327 0.19-0.603 0.19-0.83v0c0.453-0.227 0.813-0.307 1.08-0.24 0.26 0.06 0.52 0.09 0.78 0.09v0c0.16 0 0.307-0.013 0.44-0.04 0.127-0.033 0.257-0.083 0.39-0.15v0c0.16 0.033 0.297 0.073 0.41 0.12 0.113 0.047 0.253 0.07 0.42 0.07v0c0.487-0.093 0.753-0.107 0.8-0.04 0.053 0.06 0.127 0.123 0.22 0.19v0c0.133-0.033 0.24-0.09 0.32-0.17 0.08-0.08 0.187-0.12 0.32-0.12v0c0.193 0 0.34 0.12 0.44 0.36 0.093 0.247 0.207 0.45 0.34 0.61v0c0 0.36 0.063 0.687 0.19 0.98v0c0.067 1.333 0.093 2.653 0.08 3.96-0.02 1.3 0.02 2.6 0.12 3.9v0c0.033 0.587 0.073 1.197 0.12 1.83 0.047 0.64 0.07 1.25 0.07 1.83v0c0 0.98 0.01 1.967 0.03 2.96 0.013 0.993 0.02 1.993 0.02 3v0c0 0.167 0.01 0.313 0.03 0.44 0.013 0.133 0.02 0.28 0.02 0.44v0c0 0.393-0.017 0.767-0.05 1.12-0.033 0.36-0.05 0.72-0.05 1.08v0 3.81c0 0.32-0.007 0.653-0.02 1-0.013 0.34-0.007 0.673 0.02 1v0l0.2 0.58c0.36-0.127 0.727-0.263 1.1-0.41 0.373-0.147 0.77-0.253 1.19-0.32v0c0.26-0.067 0.507-0.13 0.74-0.19 0.227-0.067 0.47-0.133 0.73-0.2v0c0.453-0.26 0.81-0.44 1.07-0.54 0.26-0.093 0.52-0.19 0.78-0.29v0c0.553-0.193 1.093-0.397 1.62-0.61 0.52-0.213 1.057-0.417 1.61-0.61v0c0.26 0.067 0.47 0.033 0.63-0.1v0c0.327 0.067 0.62 0.1 0.88 0.1v0c0.36 0.36 0.58 0.637 0.66 0.83 0.08 0.193 0.203 0.373 0.37 0.54v0c-0.067 0.16-0.06 0.257 0.02 0.29 0.08 0.033 0.137 0.113 0.17 0.24v0c0.133 0.067 0.15 0.157 0.05 0.27-0.1 0.113-0.167 0.22-0.2 0.32zM214.43 0.59v0c-0.127-0.133-0.19-0.313-0.19-0.54v0c0-0.167 0.007-0.307 0.02-0.42 0.02-0.113 0.047-0.25 0.08-0.41v0c0.16-0.747 0.24-1.503 0.24-2.27 0-0.767 0.033-1.523 0.1-2.27v0c0.033-0.46 0.057-0.917 0.07-1.37 0.02-0.453 0.03-0.91 0.03-1.37v0c0-2.7-0.083-5.393-0.25-8.08-0.16-2.687-0.24-5.397-0.24-8.13v0c0-1.887 0.033-3.783 0.1-5.69 0.06-1.9 0.107-3.81 0.14-5.73v0c0.293-0.167 0.653-0.233 1.08-0.2 0.42 0.033 0.76-0.113 1.02-0.44v0c0.167-0.033 0.33-0.04 0.49-0.02 0.16 0.013 0.323 0.02 0.49 0.02v0c0.36 0 0.7-0.113 1.02-0.34 0.327-0.227 0.687-0.423 1.08-0.59v0c0.193 0.067 0.33 0.093 0.41 0.08 0.087-0.02 0.177-0.03 0.27-0.03v0c0.1 0 0.313 0.113 0.64 0.34 0.32 0.233 0.677 0.497 1.07 0.79 0.393 0.293 0.76 0.57 1.1 0.83 0.34 0.26 0.56 0.42 0.66 0.48v0c0.813 0.62 1.537 1.297 2.17 2.03 0.633 0.733 1.26 1.473 1.88 2.22v0c0.587 0.753 1.223 1.51 1.91 2.27 0.68 0.767 1.347 1.477 2 2.13v0c0.227 0.26 0.463 0.487 0.71 0.68 0.24 0.193 0.473 0.42 0.7 0.68v0c0.1 0.133 0.19 0.273 0.27 0.42 0.08 0.147 0.17 0.3 0.27 0.46v0c0.193 0.227 0.42 0.423 0.68 0.59 0.26 0.16 0.507 0.353 0.74 0.58v0c0.16 0.133 0.403 0.397 0.73 0.79 0.327 0.387 0.49 0.68 0.49 0.88v0c0 0.127-0.033 0.24-0.1 0.34-0.067 0.093-0.133 0.207-0.2 0.34v0c-0.027 0.1-0.04 0.247-0.04 0.44 0 0.193-0.017 0.323-0.05 0.39v0c-0.327 0.26-0.507 0.423-0.54 0.49-0.033 0.06-0.083 0.123-0.15 0.19v0c-0.093 0.133-0.213 0.24-0.36 0.32-0.147 0.08-0.253 0.203-0.32 0.37v0c-0.067 0.093-0.09 0.19-0.07 0.29 0.013 0.1-0.013 0.213-0.08 0.34v0c-0.16 0.36-0.42 0.703-0.78 1.03-0.36 0.32-0.67 0.677-0.93 1.07v0c-0.353 0.587-0.71 1.173-1.07 1.76-0.36 0.587-0.767 1.157-1.22 1.71v0c-0.193 0.26-0.397 0.51-0.61 0.75-0.213 0.247-0.417 0.5-0.61 0.76v0c-0.167 0.193-0.313 0.397-0.44 0.61-0.133 0.213-0.28 0.45-0.44 0.71v0c-0.36 0.453-0.703 0.9-1.03 1.34-0.32 0.44-0.66 0.887-1.02 1.34v0c-0.393 0.553-0.817 1.1-1.27 1.64-0.453 0.54-0.86 1.087-1.22 1.64v0c-0.36 0.587-0.733 1.123-1.12 1.61-0.393 0.487-0.817 0.957-1.27 1.41v0c-0.133 0.1-0.297 0.247-0.49 0.44-0.2 0.2-0.397 0.3-0.59 0.3v0c-0.127 0-0.233-0.05-0.32-0.15-0.08-0.1-0.2-0.15-0.36-0.15v0c-0.033 0-0.13 0.017-0.29 0.05-0.167 0.033-0.363 0.067-0.59 0.1v0l-0.88 0.1c-0.52 0.26-0.893 0.38-1.12 0.36-0.227-0.013-0.457-0.003-0.69 0.03v0c-0.127 0.033-0.23 0.08-0.31 0.14-0.087 0.067-0.177 0.1-0.27 0.1v0c-0.227 0-0.407-0.107-0.54-0.32-0.127-0.207-0.323-0.293-0.59-0.26zM229.08-20.51v0c0-0.16-0.153-0.387-0.46-0.68-0.307-0.293-0.543-0.507-0.71-0.64v0c-0.227-0.193-0.493-0.38-0.8-0.56-0.313-0.18-0.567-0.383-0.76-0.61v0c-0.167-0.193-0.323-0.397-0.47-0.61-0.14-0.213-0.293-0.417-0.46-0.61v0c-0.587-0.653-1.18-1.303-1.78-1.95-0.6-0.653-1.13-1.37-1.59-2.15v0c-0.293-0.193-0.57-0.42-0.83-0.68-0.26-0.26-0.57-0.473-0.93-0.64v0c-0.06 0.193-0.083 0.397-0.07 0.61 0.02 0.213 0.03 0.417 0.03 0.61v0c0 0.753-0.033 1.487-0.1 2.2-0.067 0.713-0.1 1.43-0.1 2.15v0c0 1.753 0.04 3.487 0.12 5.2 0.08 1.707 0.12 3.423 0.12 5.15v0c0 0.653 0.01 1.303 0.03 1.95 0.013 0.653 0.07 1.307 0.17 1.96v0c-0.067 0.193-0.1 0.37-0.1 0.53v0c0 0.167 0.033 0.38 0.1 0.64v0c0.26-0.167 0.48-0.37 0.66-0.61 0.18-0.247 0.35-0.483 0.51-0.71v0c0.553-0.72 1.1-1.443 1.64-2.17 0.533-0.733 1.077-1.477 1.63-2.23v0c0.36-0.487 0.727-0.967 1.1-1.44 0.373-0.467 0.74-0.963 1.1-1.49v0c0.1-0.127 0.253-0.353 0.46-0.68 0.213-0.327 0.427-0.66 0.64-1 0.213-0.34 0.407-0.657 0.58-0.95 0.18-0.293 0.27-0.49 0.27-0.59zM274.4-0.24v0c-0.193 0-0.357 0.04-0.49 0.12-0.127 0.08-0.273 0.153-0.44 0.22v0c-0.26 0.16-0.38 0.28-0.36 0.36 0.013 0.087-0.027 0.13-0.12 0.13v0c-0.293 0-0.58-0.05-0.86-0.15-0.273-0.1-0.557-0.15-0.85-0.15v0c-0.26-0.127-0.507-0.263-0.74-0.41-0.227-0.147-0.453-0.333-0.68-0.56v0c-0.293 0-0.497 0.023-0.61 0.07-0.113 0.047-0.25 0.053-0.41 0.02v0c-0.427-0.16-0.82-0.393-1.18-0.7-0.353-0.313-0.76-0.55-1.22-0.71v0c-0.127-0.167-0.273-0.29-0.44-0.37-0.16-0.08-0.323-0.187-0.49-0.32v0c-0.287-0.127-0.717-0.37-1.29-0.73-0.567-0.36-1.17-0.743-1.81-1.15-0.633-0.407-1.227-0.803-1.78-1.19-0.553-0.393-0.943-0.703-1.17-0.93v0c-0.133-0.033-0.33-0.14-0.59-0.32-0.26-0.18-0.51-0.383-0.75-0.61-0.247-0.227-0.467-0.453-0.66-0.68-0.193-0.227-0.29-0.423-0.29-0.59v0c0-0.16 0.08-0.297 0.24-0.41 0.16-0.113 0.273-0.253 0.34-0.42v0c0.033-0.06 0.043-0.15 0.03-0.27-0.02-0.113-0.013-0.2 0.02-0.26v0c0.16-0.26 0.25-0.463 0.27-0.61 0.013-0.147 0.037-0.287 0.07-0.42v0c0.167-0.193 0.313-0.373 0.44-0.54 0.133-0.16 0.28-0.337 0.44-0.53v0c-0.033-0.36 0.033-0.62 0.2-0.78 0.16-0.167 0.337-0.33 0.53-0.49v0c0.167 0 0.363 0.017 0.59 0.05 0.227 0.027 0.423 0.073 0.59 0.14v0c0.32 0.167 0.48 0.273 0.48 0.32 0 0.047 0.033 0.103 0.1 0.17v0c0.167 0.133 0.33 0.247 0.49 0.34 0.16 0.1 0.323 0.2 0.49 0.3v0c0.353 0.26 0.72 0.52 1.1 0.78 0.373 0.26 0.753 0.52 1.14 0.78v0c0.46 0.26 1.007 0.6 1.64 1.02 0.633 0.427 1.21 0.737 1.73 0.93v0c0.067-0.193 0.1-0.453 0.1-0.78v0c0-0.227-0.007-0.453-0.02-0.68-0.02-0.233-0.03-0.48-0.03-0.74v0c0-0.353-0.033-0.71-0.1-1.07-0.06-0.36-0.123-0.703-0.19-1.03v0c-0.167-1.56-0.263-3.09-0.29-4.59v0c-0.033-0.453-0.067-0.89-0.1-1.31-0.033-0.427-0.05-0.867-0.05-1.32v0c0-0.62 0.007-1.24 0.02-1.86 0.02-0.62 0.03-1.253 0.03-1.9v0c0-0.553 0.017-1.107 0.05-1.66 0.033-0.553 0.05-1.107 0.05-1.66v0c0-0.553 0.007-1.077 0.02-1.57 0.013-0.487 0.02-1.007 0.02-1.56v0c0-0.813-0.007-1.707-0.02-2.68-0.013-0.98 0.027-1.877 0.12-2.69v0c0.067-0.327 0.167-0.57 0.3-0.73v0c0.58 0.033 1.05 0.057 1.41 0.07 0.36 0.02 0.767 0.03 1.22 0.03v0c0.133 0 0.24 0.04 0.32 0.12 0.08 0.08 0.17 0.12 0.27 0.12v0c0.127 0 0.233-0.023 0.32-0.07 0.08-0.053 0.183-0.08 0.31-0.08v0c0.227 0 0.44 0.1 0.64 0.3v0c0.353-0.1 0.63-0.117 0.83-0.05v0c0.16 0.16 0.263 0.387 0.31 0.68 0.053 0.293 0.113 0.57 0.18 0.83v0c0 0.293 0.007 0.523 0.02 0.69 0.013 0.16 0.02 0.32 0.02 0.48v0c0 0.36-0.013 0.72-0.04 1.08-0.033 0.36-0.05 0.717-0.05 1.07v0c0 0.427 0.023 0.85 0.07 1.27 0.047 0.427 0.07 0.85 0.07 1.27v0c0 0.453-0.017 0.877-0.05 1.27-0.027 0.393-0.04 0.8-0.04 1.22v0c0 0.327 0.007 0.637 0.02 0.93 0.013 0.293 0.02 0.587 0.02 0.88v0c0 0.68-0.007 1.363-0.02 2.05-0.013 0.68-0.02 1.363-0.02 2.05v0c0 0.16 0.007 0.357 0.02 0.59 0.013 0.227 0.007 0.437-0.02 0.63v0c0 0.16-0.067 0.34-0.2 0.54v0c0.067 1.073 0.123 2.147 0.17 3.22 0.047 1.073 0.103 2.147 0.17 3.22v0c0 0.26 0.017 0.547 0.05 0.86 0.033 0.307 0.067 0.607 0.1 0.9v0c0.067 0.36 0.1 0.717 0.1 1.07 0 0.36 0.017 0.72 0.05 1.08v0c0.027 0.453 0.067 0.9 0.12 1.34 0.047 0.44 0.087 0.887 0.12 1.34v0c0.033 0.36 0.083 0.72 0.15 1.08 0.06 0.36 0.09 0.717 0.09 1.07v0c0 0.46-0.017 1.007-0.05 1.64-0.027 0.633-0.123 1.163-0.29 1.59zM308.69-33.2v0c0 0.293-0.1 0.513-0.3 0.66-0.193 0.147-0.37 0.333-0.53 0.56v0c-0.327 0.293-0.613 0.593-0.86 0.9-0.247 0.307-0.53 0.607-0.85 0.9v0c-0.133 0.133-0.313 0.307-0.54 0.52-0.227 0.207-0.463 0.417-0.71 0.63-0.247 0.213-0.49 0.4-0.73 0.56-0.247 0.167-0.45 0.25-0.61 0.25v0c-0.26 0-0.593-0.09-1-0.27-0.407-0.18-0.757-0.303-1.05-0.37v0c-0.227-0.033-0.43-0.057-0.61-0.07-0.18-0.02-0.353-0.11-0.52-0.27v0c-0.58-0.127-0.953-0.33-1.12-0.61-0.16-0.273-0.34-0.557-0.54-0.85v0c0-0.133 0.05-0.217 0.15-0.25 0.1-0.033 0.18-0.097 0.24-0.19v0c0.327-0.427 0.603-0.777 0.83-1.05 0.233-0.28 0.497-0.567 0.79-0.86v0c0.553-0.487 1.08-0.99 1.58-1.51 0.507-0.52 1.037-1.01 1.59-1.47v0c0.26-0.033 0.457-0.13 0.59-0.29 0.127-0.16 0.32-0.24 0.58-0.24v0c0.26 0 0.48 0.08 0.66 0.24 0.18 0.16 0.343 0.347 0.49 0.56 0.147 0.213 0.293 0.427 0.44 0.64 0.147 0.207 0.317 0.36 0.51 0.46v0c0.227 0.16 0.537 0.373 0.93 0.64 0.393 0.26 0.59 0.52 0.59 0.78zM302-24.12v0c0.227 0.127 0.397 0.297 0.51 0.51 0.113 0.213 0.283 0.37 0.51 0.47v0c0.193 0.093 0.407 0.14 0.64 0.14 0.227 0 0.42 0.033 0.58 0.1v0c0.133 0.067 0.23 0.147 0.29 0.24 0.067 0.1 0.133 0.2 0.2 0.3v0c0.193 0.16 0.493 0.307 0.9 0.44 0.407 0.127 0.677 0.273 0.81 0.44v0c0.227 0.293 0.397 0.667 0.51 1.12 0.113 0.453 0.203 0.933 0.27 1.44 0.067 0.507 0.117 1.01 0.15 1.51 0.033 0.507 0.08 0.94 0.14 1.3v0c0.067 0.747 0.15 1.487 0.25 2.22 0.093 0.733 0.14 1.473 0.14 2.22v0c0 0.747-0.03 1.51-0.09 2.29-0.067 0.787-0.1 1.553-0.1 2.3v0c0 0.393-0.01 0.88-0.03 1.46-0.013 0.587-0.15 1.043-0.41 1.37v0c-0.033 0.133-0.05 0.363-0.05 0.69v0 1.56c0 0.193 0.017 0.387 0.05 0.58 0.033 0.2 0.05 0.413 0.05 0.64v0c0 0.36-0.1 0.62-0.3 0.78v0c-0.093-0.033-0.197-0.05-0.31-0.05-0.113 0-0.22 0-0.32 0v0c-0.36 0-0.62 0.067-0.78 0.2v0c-0.36-0.033-0.703-0.067-1.03-0.1-0.32-0.033-0.66-0.05-1.02-0.05v0c-0.553 0-1.157 0.08-1.81 0.24v0c-0.127-0.32-0.183-0.66-0.17-1.02 0.02-0.36-0.053-0.687-0.22-0.98v0c-0.033-0.093-0.057-0.183-0.07-0.27-0.02-0.08-0.03-0.167-0.03-0.26v0c0.1-0.393 0.15-0.663 0.15-0.81 0-0.147 0-0.3 0-0.46v0c0-0.46-0.017-0.927-0.05-1.4-0.033-0.467-0.017-0.93 0.05-1.39v0c0-0.16 0.023-0.307 0.07-0.44 0.053-0.127 0.08-0.273 0.08-0.44v0c0-0.16-0.033-0.273-0.1-0.34-0.067-0.067-0.1-0.147-0.1-0.24v0c0-0.1 0.01-0.263 0.03-0.49 0.013-0.227 0.053-0.373 0.12-0.44v0c0-0.26 0.007-0.513 0.02-0.76 0.02-0.24 0.03-0.477 0.03-0.71v0c0-0.52-0.017-1.04-0.05-1.56-0.033-0.52-0.05-1.023-0.05-1.51v0c0-0.227-0.017-0.373-0.05-0.44-0.033-0.067-0.067-0.117-0.1-0.15-0.033-0.033-0.08-0.057-0.14-0.07-0.067-0.013-0.117-0.07-0.15-0.17v0c0.127-1.433 0.077-2.867-0.15-4.3-0.227-1.433-0.34-2.88-0.34-4.34v0c0-0.233 0.033-0.407 0.1-0.52 0.067-0.113 0.147-0.203 0.24-0.27 0.1-0.06 0.19-0.13 0.27-0.21 0.08-0.087 0.137-0.21 0.17-0.37v0c0.26 0.067 0.49 0.067 0.69 0zM349.95-36.43v0c0.52-0.06 0.92-0.017 1.2 0.13 0.273 0.147 0.557 0.233 0.85 0.26v0c0.167 0.033 0.337 0.043 0.51 0.03 0.18-0.02 0.37-0.03 0.57-0.03v0c0.42 0 0.753 0.05 1 0.15 0.24 0.1 0.49 0.313 0.75 0.64v0c0.067 0.06 0.157 0.147 0.27 0.26 0.113 0.12 0.17 0.227 0.17 0.32v0c0 0.26-0.063 0.49-0.19 0.69-0.133 0.193-0.2 0.47-0.2 0.83v0c0 0.553 0.067 1.097 0.2 1.63 0.127 0.54 0.207 1.087 0.24 1.64v0c0.167 2.013 0.257 4.04 0.27 6.08 0.02 2.033 0.03 4.043 0.03 6.03v0c0 0.26-0.01 0.493-0.03 0.7-0.013 0.213-0.087 0.403-0.22 0.57v0 0.63c-0.033 0.847-0.017 1.7 0.05 2.56 0.067 0.867 0.1 1.723 0.1 2.57v0c0 0.747-0.04 1.493-0.12 2.24-0.087 0.753-0.13 1.52-0.13 2.3v0c0 0.713 0.05 1.413 0.15 2.1 0.1 0.68 0.15 1.38 0.15 2.1v0c-0.167 0.293-0.267 0.52-0.3 0.68-0.033 0.167-0.097 0.313-0.19 0.44v0c-0.1 0.067-0.207 0.083-0.32 0.05-0.113-0.033-0.203 0-0.27 0.1v0c-0.16 0.193-0.273 0.42-0.34 0.68-0.067 0.26-0.23 0.473-0.49 0.64v0c-0.067 0.453-0.237 0.803-0.51 1.05-0.28 0.24-0.483 0.557-0.61 0.95v0c-0.393 0.033-0.663 0.017-0.81-0.05-0.147-0.067-0.3-0.133-0.46-0.2v0c-0.033-0.553-0.027-0.95 0.02-1.19 0.053-0.247 0.08-0.5 0.08-0.76v0c0-0.327-0.083-0.57-0.25-0.73-0.16-0.167-0.273-0.38-0.34-0.64v0c-0.36-0.227-0.603-0.38-0.73-0.46-0.133-0.08-0.247-0.187-0.34-0.32v0c-0.2-0.26-0.363-0.537-0.49-0.83-0.133-0.293-0.28-0.57-0.44-0.83v0c-0.453-0.747-0.917-1.51-1.39-2.29-0.473-0.78-0.987-1.547-1.54-2.3v0c-0.1-0.16-0.213-0.307-0.34-0.44-0.133-0.127-0.247-0.273-0.34-0.44v0c-0.553-0.88-1.077-1.773-1.57-2.68-0.487-0.913-1.057-1.777-1.71-2.59v0c-0.26-0.327-0.453-0.693-0.58-1.1-0.133-0.407-0.33-0.757-0.59-1.05v0c-0.033 0.167-0.05 0.347-0.05 0.54 0 0.193 0 0.373 0 0.54v0c0 1.107 0.027 2.203 0.08 3.29 0.047 1.093 0.07 2.193 0.07 3.3v0c0 0.227-0.023 0.43-0.07 0.61-0.053 0.18-0.08 0.383-0.08 0.61v0c0 0.327 0.017 0.637 0.05 0.93 0.033 0.293 0.05 0.583 0.05 0.87v0c0 0.36-0.007 0.703-0.02 1.03-0.02 0.327-0.047 0.653-0.08 0.98v0c-0.06 0.42-0.14 0.817-0.24 1.19-0.1 0.373-0.15 0.757-0.15 1.15v0c0 0.227 0.027 0.44 0.08 0.64 0.047 0.193 0.07 0.37 0.07 0.53v0c-0.227 0.36-0.513 0.54-0.86 0.54-0.34 0-0.623 0.13-0.85 0.39v0c-0.193-0.033-0.347-0.017-0.46 0.05-0.113 0.067-0.22 0.1-0.32 0.1v0c-0.133 0-0.24-0.017-0.32-0.05-0.08-0.033-0.17-0.05-0.27-0.05v0c-0.16 0-0.32 0.08-0.48 0.24-0.167 0.167-0.33 0.25-0.49 0.25v0c-0.1 0-0.273-0.067-0.52-0.2-0.24-0.127-0.5-0.28-0.78-0.46-0.273-0.18-0.523-0.36-0.75-0.54-0.233-0.18-0.35-0.317-0.35-0.41v0c-0.027-0.167-0.04-0.397-0.04-0.69v0c0-0.387 0.023-0.77 0.07-1.15 0.047-0.373 0.103-0.753 0.17-1.14v0c0.1-1.107 0.15-2.207 0.15-3.3 0-1.087 0-2.183 0-3.29v0c0-0.46 0.007-0.917 0.02-1.37 0.013-0.46 0.02-0.917 0.02-1.37v0c0-1.073-0.04-2.157-0.12-3.25-0.08-1.087-0.12-2.167-0.12-3.24v0c0-0.753 0.033-1.493 0.1-2.22 0.067-0.733 0.1-1.46 0.1-2.18v0c0-0.553-0.017-1.09-0.05-1.61-0.033-0.52-0.05-1.057-0.05-1.61v0c-0.033-0.36-0.033-0.743 0-1.15 0.033-0.407 0.05-0.79 0.05-1.15v0c0-0.42-0.057-0.817-0.17-1.19-0.113-0.373-0.17-0.723-0.17-1.05v0c0-0.193 0.04-0.38 0.12-0.56 0.08-0.18 0.12-0.367 0.12-0.56v0c0-0.26-0.04-0.523-0.12-0.79-0.08-0.26-0.12-0.52-0.12-0.78v0c0-0.26 0.03-0.503 0.09-0.73 0.067-0.227 0.1-0.47 0.1-0.73v0c0.453-0.227 0.86-0.34 1.22-0.34v0c0.36 0 0.62 0.13 0.78 0.39v0c0 0.587 0.033 1.033 0.1 1.34 0.067 0.307 0.117 0.623 0.15 0.95v0c0 0.2-0.01 0.43-0.03 0.69-0.013 0.26-0.003 0.51 0.03 0.75 0.033 0.247 0.107 0.45 0.22 0.61 0.113 0.167 0.317 0.25 0.61 0.25v0c0.06 0.16 0.14 0.307 0.24 0.44 0.1 0.127 0.167 0.287 0.2 0.48v0c0.193-0.127 0.307-0.303 0.34-0.53 0.033-0.227 0.033-0.44 0-0.64v0c0.16 0.067 0.307 0.093 0.44 0.08 0.127-0.02 0.257 0.003 0.39 0.07v0c0.067 0.453 0.147 0.853 0.24 1.2 0.1 0.34 0.133 0.737 0.1 1.19v0c0.653 0.487 1.213 1.18 1.68 2.08 0.473 0.893 0.923 1.697 1.35 2.41v0c0.227 0.36 0.493 0.697 0.8 1.01 0.313 0.307 0.55 0.67 0.71 1.09v0c0.26 0.167 0.473 0.38 0.64 0.64 0.16 0.26 0.307 0.52 0.44 0.78v0c0.647 1.14 1.36 2.247 2.14 3.32 0.787 1.073 1.603 2.13 2.45 3.17v0c0.027-0.227 0.04-0.447 0.04-0.66 0-0.207 0-0.423 0-0.65v0l-0.04-4.4c0-0.26-0.01-0.503-0.03-0.73-0.013-0.227-0.037-0.47-0.07-0.73v0c-0.067-0.847-0.083-1.677-0.05-2.49 0.033-0.813 0.033-1.643 0-2.49v0c-0.067-0.88-0.107-1.777-0.12-2.69-0.02-0.913-0.063-1.823-0.13-2.73v0c-0.027-0.553-0.057-1.107-0.09-1.66-0.033-0.553-0.05-1.107-0.05-1.66v0c0-0.687 0.063-1.307 0.19-1.86v0c0.067-0.067 0.14-0.123 0.22-0.17 0.087-0.047 0.193-0.07 0.32-0.07v0c0.193 0 0.323 0.16 0.39 0.48zM407.04-18.7h0.19c0.067 0.227 0.197 0.47 0.39 0.73 0.2 0.26 0.3 0.457 0.3 0.59v0c-0.26 0.613-0.457 1.093-0.59 1.44-0.133 0.34-0.343 0.64-0.63 0.9v0c0 0.1-0.1 0.313-0.3 0.64-0.193 0.32-0.413 0.67-0.66 1.05-0.24 0.373-0.483 0.73-0.73 1.07-0.247 0.34-0.4 0.577-0.46 0.71v0c-0.167 0.26-0.297 0.51-0.39 0.75-0.1 0.247-0.217 0.483-0.35 0.71v0c-0.287 0.52-0.587 1.01-0.9 1.47-0.307 0.453-0.59 0.957-0.85 1.51v0c-0.167 0.167-0.313 0.347-0.44 0.54-0.133 0.193-0.28 0.373-0.44 0.54v0c-0.393 0.713-0.843 1.38-1.35 2-0.5 0.613-0.963 1.297-1.39 2.05v0c0.36 0.36 0.54 0.817 0.54 1.37v0c0 0.287-0.08 0.44-0.24 0.46-0.167 0.013-0.313 0.053-0.44 0.12v0c-0.327 0.227-0.62 0.357-0.88 0.39-0.26 0.033-0.473 0.05-0.64 0.05v0c-0.353 0-0.743-0.007-1.17-0.02-0.42-0.02-0.777 0.003-1.07 0.07v0c-0.1 0.033-0.213 0.09-0.34 0.17-0.133 0.08-0.233 0.12-0.3 0.12v0c-0.26 0-0.447-0.04-0.56-0.12-0.113-0.08-0.267-0.153-0.46-0.22v0c-0.26-0.293-0.497-0.603-0.71-0.93-0.213-0.327-0.433-0.65-0.66-0.97v0c-0.193-0.233-0.403-0.437-0.63-0.61-0.233-0.18-0.447-0.4-0.64-0.66v0c-0.52-0.753-1.05-1.47-1.59-2.15-0.533-0.687-1.077-1.37-1.63-2.05v0c-0.26-0.36-0.547-0.703-0.86-1.03-0.307-0.327-0.59-0.65-0.85-0.97v0c-0.26-0.36-0.503-0.737-0.73-1.13-0.233-0.387-0.48-0.76-0.74-1.12v0c-0.193-0.327-0.47-0.727-0.83-1.2-0.353-0.467-0.727-0.947-1.12-1.44-0.393-0.487-0.793-0.95-1.2-1.39-0.407-0.44-0.757-0.773-1.05-1v0c0-0.227-0.063-0.39-0.19-0.49-0.133-0.093-0.28-0.207-0.44-0.34v0c-0.067-0.16-0.147-0.313-0.24-0.46-0.1-0.147-0.15-0.32-0.15-0.52v0c0-0.227 0.05-0.437 0.15-0.63v0c0.06-0.133 0.1-0.257 0.12-0.37 0.013-0.113 0.053-0.233 0.12-0.36v0c0.16-0.427 0.397-0.803 0.71-1.13 0.307-0.32 0.543-0.693 0.71-1.12v0c0.027-0.133 0.04-0.257 0.04-0.37 0-0.113 0.033-0.233 0.1-0.36v0c0.1-0.227 0.247-0.43 0.44-0.61 0.193-0.18 0.373-0.383 0.54-0.61v0c0.16-0.293 0.323-0.587 0.49-0.88 0.16-0.293 0.323-0.587 0.49-0.88v0c0.453-0.747 0.957-1.47 1.51-2.17 0.553-0.7 1.073-1.393 1.56-2.08v0c0.46-0.653 0.883-1.297 1.27-1.93 0.393-0.633 0.817-1.277 1.27-1.93v0c0.227-0.32 0.487-0.683 0.78-1.09 0.293-0.413 0.597-0.813 0.91-1.2 0.307-0.393 0.623-0.76 0.95-1.1 0.327-0.34 0.65-0.593 0.97-0.76v0c0.553-0.06 0.913 0.03 1.08 0.27 0.16 0.247 0.387 0.37 0.68 0.37v0c0.46 0.093 0.77 0.24 0.93 0.44 0.16 0.193 0.323 0.37 0.49 0.53v0c0.42 0 0.777 0.083 1.07 0.25 0.293 0.16 0.587 0.403 0.88 0.73v0c-0.127 0.36-0.297 0.687-0.51 0.98-0.213 0.293-0.4 0.603-0.56 0.93v0c-0.26 0.093-0.447 0.253-0.56 0.48-0.12 0.233-0.293 0.43-0.52 0.59v0c-0.353 0.553-0.71 1.1-1.07 1.64-0.36 0.533-0.72 1.043-1.08 1.53v0c-0.16 0.2-0.337 0.357-0.53 0.47-0.2 0.113-0.38 0.283-0.54 0.51v0c-0.067 0.1-0.117 0.207-0.15 0.32-0.033 0.113-0.08 0.22-0.14 0.32v0c-0.393 0.613-0.833 1.213-1.32 1.8-0.487 0.587-0.91 1.207-1.27 1.86v0c-0.167 0.227-0.297 0.463-0.39 0.71-0.1 0.24-0.213 0.473-0.34 0.7v0c-0.133 0.227-0.323 0.513-0.57 0.86-0.24 0.34-0.483 0.69-0.73 1.05-0.24 0.353-0.45 0.71-0.63 1.07-0.18 0.36-0.27 0.653-0.27 0.88v0c0.033 0.16 0.243 0.487 0.63 0.98 0.393 0.487 0.833 1.007 1.32 1.56 0.487 0.553 0.95 1.083 1.39 1.59 0.44 0.5 0.71 0.8 0.81 0.9v0c0.067 0.16 0.31 0.51 0.73 1.05 0.427 0.54 0.907 1.127 1.44 1.76 0.54 0.633 1.07 1.243 1.59 1.83 0.52 0.587 0.877 1.01 1.07 1.27v0l0.39 0.63c0.067-0.033 0.24-0.26 0.52-0.68 0.273-0.427 0.557-0.9 0.85-1.42 0.293-0.52 0.563-1.007 0.81-1.46 0.24-0.46 0.393-0.753 0.46-0.88v0c0.1-0.1 0.263-0.36 0.49-0.78 0.227-0.427 0.48-0.883 0.76-1.37 0.273-0.487 0.517-0.943 0.73-1.37 0.213-0.42 0.333-0.697 0.36-0.83v0h-0.58c-0.52 0-1.033 0.027-1.54 0.08-0.507 0.047-1.02 0.15-1.54 0.31v0c-0.227-0.027-0.42-0.09-0.58-0.19-0.167-0.1-0.363-0.197-0.59-0.29v0c-0.1-0.327-0.14-0.557-0.12-0.69 0.013-0.127 0.003-0.223-0.03-0.29v0c-0.027-0.133-0.067-0.23-0.12-0.29-0.047-0.067-0.07-0.167-0.07-0.3v0c0-0.227-0.033-0.413-0.1-0.56-0.067-0.147-0.13-0.317-0.19-0.51v0c0-0.133 0.007-0.263 0.02-0.39 0.013-0.133-0.01-0.247-0.07-0.34v0c0.06-0.587 0.01-1.01-0.15-1.27v0c0-0.46 0.067-0.753 0.2-0.88 0.127-0.133 0.223-0.33 0.29-0.59v0c0.293 0.1 0.547 0.077 0.76-0.07 0.207-0.147 0.423-0.22 0.65-0.22v0c0.527 0 0.95-0.08 1.27-0.24v0c0.293-0.033 0.597-0.05 0.91-0.05 0.307 0 0.607-0.033 0.9-0.1v0c0.167-0.033 0.307-0.067 0.42-0.1 0.113-0.033 0.25-0.067 0.41-0.1v0c0.193-0.033 0.407-0.05 0.64-0.05 0.227 0 0.437 0 0.63 0v0c0.52-0.06 1.04-0.1 1.56-0.12 0.52-0.013 1.043-0.037 1.57-0.07v0c0.16 0.067 0.313 0.117 0.46 0.15 0.147 0.027 0.283 0.073 0.41 0.14v0c0.1 0.067 0.183 0.14 0.25 0.22 0.067 0.08 0.18 0.137 0.34 0.17v0c0.16 0.167 0.273 0.33 0.34 0.49v0c-0.067 0.293-0.05 0.507 0.05 0.64v0c-0.16 0.16-0.25 0.38-0.27 0.66-0.013 0.273-0.037 0.523-0.07 0.75v0c0.227 0.067 0.423 0.247 0.59 0.54 0.16 0.293 0.273 0.44 0.34 0.44zM485.17-36.43v0c0.527-0.06 0.927-0.017 1.2 0.13 0.28 0.147 0.567 0.233 0.86 0.26v0c0.16 0.033 0.33 0.043 0.51 0.03 0.18-0.02 0.367-0.03 0.56-0.03v0c0.42 0 0.753 0.05 1 0.15 0.247 0.1 0.5 0.313 0.76 0.64v0c0.06 0.06 0.15 0.147 0.27 0.26 0.113 0.12 0.17 0.227 0.17 0.32v0c0 0.26-0.067 0.49-0.2 0.69-0.127 0.193-0.19 0.47-0.19 0.83v0c0 0.553 0.063 1.097 0.19 1.63 0.133 0.54 0.217 1.087 0.25 1.64v0c0.16 2.013 0.247 4.04 0.26 6.08 0.02 2.033 0.03 4.043 0.03 6.03v0c0 0.26-0.01 0.493-0.03 0.7-0.013 0.213-0.087 0.403-0.22 0.57v0 0.63c-0.027 0.847-0.01 1.7 0.05 2.56 0.067 0.867 0.1 1.723 0.1 2.57v0c0 0.747-0.04 1.493-0.12 2.24-0.08 0.753-0.12 1.52-0.12 2.3v0c0 0.713 0.047 1.413 0.14 2.1 0.1 0.68 0.15 1.38 0.15 2.1v0c-0.16 0.293-0.257 0.52-0.29 0.68-0.033 0.167-0.1 0.313-0.2 0.44v0c-0.1 0.067-0.207 0.083-0.32 0.05-0.113-0.033-0.2 0-0.26 0.1v0c-0.167 0.193-0.283 0.42-0.35 0.68-0.06 0.26-0.22 0.473-0.48 0.64v0c-0.067 0.453-0.24 0.803-0.52 1.05-0.273 0.24-0.477 0.557-0.61 0.95v0c-0.387 0.033-0.653 0.017-0.8-0.05-0.147-0.067-0.303-0.133-0.47-0.2v0c-0.033-0.553-0.023-0.95 0.03-1.19 0.047-0.247 0.07-0.5 0.07-0.76v0c0-0.327-0.08-0.57-0.24-0.73-0.167-0.167-0.283-0.38-0.35-0.64v0c-0.353-0.227-0.597-0.38-0.73-0.46-0.127-0.08-0.24-0.187-0.34-0.32v0c-0.193-0.26-0.357-0.537-0.49-0.83-0.127-0.293-0.273-0.57-0.44-0.83v0c-0.453-0.747-0.917-1.51-1.39-2.29-0.473-0.78-0.987-1.547-1.54-2.3v0c-0.093-0.16-0.207-0.307-0.34-0.44-0.127-0.127-0.24-0.273-0.34-0.44v0c-0.553-0.88-1.073-1.773-1.56-2.68-0.493-0.913-1.063-1.777-1.71-2.59v0c-0.26-0.327-0.457-0.693-0.59-1.1-0.127-0.407-0.32-0.757-0.58-1.05v0c-0.033 0.167-0.05 0.347-0.05 0.54 0 0.193 0 0.373 0 0.54v0c0 1.107 0.023 2.203 0.07 3.29 0.047 1.093 0.07 2.193 0.07 3.3v0c0 0.227-0.023 0.43-0.07 0.61-0.047 0.18-0.07 0.383-0.07 0.61v0c0 0.327 0.017 0.637 0.05 0.93 0.027 0.293 0.04 0.583 0.04 0.87v0c0 0.36-0.007 0.703-0.02 1.03-0.013 0.327-0.037 0.653-0.07 0.98v0c-0.067 0.42-0.15 0.817-0.25 1.19-0.093 0.373-0.14 0.757-0.14 1.15v0c0 0.227 0.023 0.44 0.07 0.64 0.047 0.193 0.07 0.37 0.07 0.53v0c-0.227 0.36-0.51 0.54-0.85 0.54-0.34 0-0.627 0.13-0.86 0.39v0c-0.193-0.033-0.347-0.017-0.46 0.05-0.113 0.067-0.22 0.1-0.32 0.1v0c-0.127 0-0.23-0.017-0.31-0.05-0.087-0.033-0.177-0.05-0.27-0.05v0c-0.167 0-0.33 0.08-0.49 0.24-0.167 0.167-0.33 0.25-0.49 0.25v0c-0.1 0-0.27-0.067-0.51-0.2-0.247-0.127-0.507-0.28-0.78-0.46-0.28-0.18-0.533-0.36-0.76-0.54-0.227-0.18-0.34-0.317-0.34-0.41v0c-0.033-0.167-0.05-0.397-0.05-0.69v0c0-0.387 0.023-0.77 0.07-1.15 0.053-0.373 0.11-0.753 0.17-1.14v0c0.1-1.107 0.15-2.207 0.15-3.3 0-1.087 0-2.183 0-3.29v0c0-0.46 0.007-0.917 0.02-1.37 0.02-0.46 0.03-0.917 0.03-1.37v0c0-1.073-0.04-2.157-0.12-3.25-0.087-1.087-0.13-2.167-0.13-3.24v0c0-0.753 0.033-1.493 0.1-2.22 0.067-0.733 0.1-1.46 0.1-2.18v0c0-0.553-0.017-1.09-0.05-1.61-0.033-0.52-0.05-1.057-0.05-1.61v0c-0.033-0.36-0.033-0.743 0-1.15 0.033-0.407 0.05-0.79 0.05-1.15v0c0-0.42-0.057-0.817-0.17-1.19-0.113-0.373-0.17-0.723-0.17-1.05v0c0-0.193 0.04-0.38 0.12-0.56 0.08-0.18 0.12-0.367 0.12-0.56v0c0-0.26-0.04-0.523-0.12-0.79-0.08-0.26-0.12-0.52-0.12-0.78v0c0-0.26 0.033-0.503 0.1-0.73 0.06-0.227 0.09-0.47 0.09-0.73v0c0.46-0.227 0.867-0.34 1.22-0.34v0c0.36 0 0.623 0.13 0.79 0.39v0c0 0.587 0.03 1.033 0.09 1.34 0.067 0.307 0.117 0.623 0.15 0.95v0c0 0.2-0.007 0.43-0.02 0.69-0.02 0.26-0.013 0.51 0.02 0.75 0.033 0.247 0.107 0.45 0.22 0.61 0.113 0.167 0.317 0.25 0.61 0.25v0c0.067 0.16 0.147 0.307 0.24 0.44 0.1 0.127 0.167 0.287 0.2 0.48v0c0.193-0.127 0.307-0.303 0.34-0.53 0.033-0.227 0.033-0.44 0-0.64v0c0.167 0.067 0.313 0.093 0.44 0.08 0.133-0.02 0.263 0.003 0.39 0.07v0c0.067 0.453 0.15 0.853 0.25 1.2 0.093 0.34 0.123 0.737 0.09 1.19v0c0.653 0.487 1.217 1.18 1.69 2.08 0.473 0.893 0.92 1.697 1.34 2.41v0c0.227 0.36 0.497 0.697 0.81 1.01 0.307 0.307 0.54 0.67 0.7 1.09v0c0.26 0.167 0.473 0.38 0.64 0.64 0.16 0.26 0.307 0.52 0.44 0.78v0c0.653 1.14 1.37 2.247 2.15 3.32 0.78 1.073 1.593 2.13 2.44 3.17v0c0.033-0.227 0.05-0.447 0.05-0.66 0-0.207 0-0.423 0-0.65v0l-0.05-4.4c0-0.26-0.01-0.503-0.03-0.73-0.013-0.227-0.037-0.47-0.07-0.73v0c-0.067-0.847-0.083-1.677-0.05-2.49 0.033-0.813 0.033-1.643 0-2.49v0c-0.067-0.88-0.107-1.777-0.12-2.69-0.013-0.913-0.053-1.823-0.12-2.73v0c-0.033-0.553-0.067-1.107-0.1-1.66-0.033-0.553-0.05-1.107-0.05-1.66v0c0-0.687 0.067-1.307 0.2-1.86v0c0.06-0.067 0.133-0.123 0.22-0.17 0.08-0.047 0.183-0.07 0.31-0.07v0c0.2 0 0.33 0.16 0.39 0.48zM540.55-19.38v0c-0.067 0.127-0.13 0.247-0.19 0.36-0.067 0.113-0.117 0.237-0.15 0.37v0c0.127 0.127 0.25 0.263 0.37 0.41 0.113 0.147 0.17 0.303 0.17 0.47v0c0 0.127-0.027 0.247-0.08 0.36-0.047 0.113-0.053 0.22-0.02 0.32v0c-0.133 0.227-0.273 0.437-0.42 0.63-0.147 0.2-0.25 0.413-0.31 0.64v0c-0.133 0.127-0.24 0.257-0.32 0.39-0.08 0.133-0.153 0.263-0.22 0.39v0c-0.16 0.067-0.267 0.173-0.32 0.32-0.047 0.147-0.137 0.267-0.27 0.36v0c-0.033 0.133-0.193 0.443-0.48 0.93-0.293 0.487-0.62 1.007-0.98 1.56-0.36 0.553-0.703 1.093-1.03 1.62-0.32 0.52-0.547 0.86-0.68 1.02v0c-0.067 0.167-0.14 0.297-0.22 0.39-0.08 0.1-0.17 0.213-0.27 0.34v0c-0.067 0.1-0.113 0.207-0.14 0.32-0.033 0.113-0.083 0.203-0.15 0.27v0c-0.067 0.133-0.14 0.247-0.22 0.34-0.08 0.1-0.153 0.23-0.22 0.39v0c-0.327 0.427-0.653 0.933-0.98 1.52-0.327 0.58-0.637 1.1-0.93 1.56v0c-0.16 0.26-0.313 0.52-0.46 0.78-0.147 0.26-0.3 0.52-0.46 0.78v0c-0.167 0.26-0.33 0.503-0.49 0.73-0.167 0.233-0.33 0.48-0.49 0.74v0c-0.26 0.193-0.487 0.427-0.68 0.7-0.2 0.28-0.43 0.517-0.69 0.71v0c-0.42 0-0.68-0.193-0.78-0.58v0c-0.42-0.1-0.63-0.1-0.63 0 0 0.093 0 0.173 0 0.24v0c-0.133 0.067-0.223 0.163-0.27 0.29-0.047 0.133-0.137 0.233-0.27 0.3v0c-0.26-0.067-0.48-0.173-0.66-0.32-0.18-0.147-0.433-0.203-0.76-0.17v0c-0.127-0.2-0.273-0.373-0.44-0.52-0.16-0.14-0.303-0.293-0.43-0.46v0c-0.067-0.193-0.157-0.357-0.27-0.49-0.113-0.127-0.22-0.257-0.32-0.39v0c-0.1-0.16-0.197-0.307-0.29-0.44-0.1-0.127-0.2-0.257-0.3-0.39v0c-0.227-0.293-0.447-0.577-0.66-0.85-0.207-0.28-0.393-0.567-0.56-0.86v0c-0.26-0.387-0.51-0.783-0.75-1.19-0.247-0.407-0.5-0.807-0.76-1.2v0c-0.133-0.193-0.263-0.39-0.39-0.59-0.133-0.193-0.247-0.387-0.34-0.58v0c-0.067-0.167-0.157-0.363-0.27-0.59-0.113-0.227-0.253-0.373-0.42-0.44v0c-0.06-0.26-0.173-0.453-0.34-0.58-0.16-0.133-0.323-0.297-0.49-0.49v0c-0.227-0.26-0.437-0.547-0.63-0.86-0.193-0.307-0.39-0.623-0.59-0.95v0c-0.647-0.907-1.257-1.8-1.83-2.68-0.567-0.88-1.127-1.793-1.68-2.74v0c0.16-0.52 0.24-0.91 0.24-1.17 0-0.26 0.08-0.47 0.24-0.63v0c0-0.133 0.033-0.33 0.1-0.59v0c0.427-0.713 0.833-1.363 1.22-1.95v0c0.36-0.553 0.613-1.01 0.76-1.37 0.147-0.36 0.3-0.733 0.46-1.12v0c0.167-0.1 0.297-0.223 0.39-0.37 0.1-0.147 0.233-0.283 0.4-0.41v0c0.06-0.36 0.203-0.663 0.43-0.91 0.233-0.24 0.38-0.54 0.44-0.9v0c0.293-0.227 0.457-0.487 0.49-0.78v0c0.427-0.293 0.687-0.683 0.78-1.17v0c0.26-0.267 0.48-0.56 0.66-0.88 0.18-0.327 0.353-0.67 0.52-1.03v0c0.387-0.327 0.693-0.75 0.92-1.27v0c0.2-0.127 0.347-0.307 0.44-0.54 0.1-0.227 0.23-0.42 0.39-0.58v0c0.26-0.427 0.463-0.777 0.61-1.05 0.147-0.28 0.303-0.567 0.47-0.86v0c0.227 0 0.373-0.08 0.44-0.24 0.06-0.16 0.19-0.227 0.39-0.2v0c0-0.287 0.08-0.547 0.24-0.78v0c0.067-0.033 0.163-0.073 0.29-0.12 0.133-0.047 0.2-0.103 0.2-0.17v0c-0.067-0.393-0.05-0.62 0.05-0.68 0.1-0.067 0.18-0.133 0.24-0.2v0c0.36 0.067 0.607 0.117 0.74 0.15 0.127 0.033 0.337 0.147 0.63 0.34v0c0.327 0 0.553 0.067 0.68 0.2 0.133 0.127 0.28 0.223 0.44 0.29v0c0.133 0.127 0.24 0.257 0.32 0.39 0.08 0.127 0.203 0.223 0.37 0.29v0c0.26 0.36 0.537 0.75 0.83 1.17 0.293 0.427 0.57 0.82 0.83 1.18v0c0.353 0.487 0.72 0.95 1.1 1.39 0.373 0.44 0.723 0.92 1.05 1.44v0c0.093 0.16 0.27 0.443 0.53 0.85 0.26 0.407 0.553 0.84 0.88 1.3 0.327 0.453 0.62 0.867 0.88 1.24 0.26 0.373 0.44 0.593 0.54 0.66v0c0.093 0.16 0.303 0.47 0.63 0.93 0.327 0.453 0.677 0.933 1.05 1.44 0.373 0.507 0.74 0.987 1.1 1.44 0.36 0.453 0.603 0.747 0.73 0.88v0c0.36 0.487 0.63 0.883 0.81 1.19 0.18 0.313 0.35 0.65 0.51 1.01zM529.37-10.21v0c0.36-0.487 0.637-0.923 0.83-1.31 0.193-0.393 0.39-0.787 0.59-1.18v0c0.32-0.387 0.513-0.663 0.58-0.83 0.067-0.16 0.15-0.32 0.25-0.48v0c0.26-0.393 0.527-0.787 0.8-1.18 0.28-0.387 0.5-0.81 0.66-1.27v0c0.193-0.127 0.34-0.287 0.44-0.48 0.1-0.2 0.247-0.38 0.44-0.54v0c-0.193-0.687-0.42-1.217-0.68-1.59-0.26-0.373-0.523-0.74-0.79-1.1v0c-0.093-0.16-0.19-0.32-0.29-0.48-0.093-0.167-0.19-0.33-0.29-0.49v0c-0.133-0.1-0.24-0.2-0.32-0.3-0.08-0.093-0.17-0.19-0.27-0.29v0c-0.06-0.16-0.157-0.37-0.29-0.63v0c-0.133-0.167-0.263-0.313-0.39-0.44-0.133-0.133-0.247-0.297-0.34-0.49v0c-0.133-0.133-0.297-0.313-0.49-0.54-0.193-0.227-0.397-0.477-0.61-0.75-0.213-0.28-0.4-0.543-0.56-0.79-0.167-0.24-0.297-0.443-0.39-0.61v0c-0.067-0.16-0.123-0.297-0.17-0.41-0.053-0.113-0.113-0.237-0.18-0.37v0c-0.16-0.227-0.32-0.43-0.48-0.61-0.167-0.18-0.33-0.383-0.49-0.61v0c-0.1 0.067-0.19 0.107-0.27 0.12-0.08 0.02-0.153 0.063-0.22 0.13v0c-0.227 0.42-0.48 0.81-0.76 1.17-0.273 0.353-0.54 0.743-0.8 1.17v0c-0.227 0.393-0.457 0.793-0.69 1.2-0.227 0.407-0.453 0.803-0.68 1.19v0c-0.16 0.227-0.313 0.447-0.46 0.66-0.147 0.213-0.303 0.45-0.47 0.71v0c-0.16 0.227-0.297 0.463-0.41 0.71-0.113 0.24-0.253 0.477-0.42 0.71v0c-0.26 0.32-0.47 0.61-0.63 0.87-0.167 0.26-0.33 0.57-0.49 0.93v0c0.1 0.193 0.253 0.463 0.46 0.81 0.213 0.34 0.433 0.68 0.66 1.02 0.227 0.347 0.43 0.663 0.61 0.95 0.18 0.293 0.287 0.49 0.32 0.59v0c0.26 0.227 0.473 0.48 0.64 0.76 0.16 0.273 0.37 0.54 0.63 0.8v0c0.133 0.26 0.28 0.49 0.44 0.69 0.16 0.193 0.323 0.403 0.49 0.63v0c0.16 0.227 0.37 0.56 0.63 1 0.26 0.44 0.52 0.89 0.78 1.35 0.26 0.453 0.52 0.877 0.78 1.27 0.267 0.387 0.48 0.63 0.64 0.73v0c0.327-0.36 0.597-0.76 0.81-1.2 0.207-0.44 0.49-0.84 0.85-1.2zM583.92-34.91v0c-0.067 0.127-0.093 0.257-0.08 0.39 0.02 0.127 0.03 0.273 0.03 0.44v0c-0.067 0.387-0.067 0.58 0 0.58 0.067 0 0.1 0.033 0.1 0.1v0l-0.35 0.49c0 0.193-0.04 0.373-0.12 0.54-0.08 0.16-0.103 0.353-0.07 0.58v0c-0.1 0.167-0.19 0.33-0.27 0.49-0.08 0.167-0.203 0.33-0.37 0.49v0h-0.63c-0.36 0-0.743 0.023-1.15 0.07-0.407 0.053-0.803 0.08-1.19 0.08v0c-0.067 0-0.15-0.01-0.25-0.03-0.1-0.013-0.197-0.02-0.29-0.02v0c-0.067 0-0.15 0.007-0.25 0.02-0.093 0.02-0.207 0.03-0.34 0.03v0c-0.487 0-0.967-0.027-1.44-0.08-0.473-0.047-0.97-0.07-1.49-0.07v0c-0.127 0-0.257 0-0.39 0-0.127 0-0.273 0.017-0.44 0.05v0c-0.033 0.553-0.057 1.113-0.07 1.68-0.02 0.573-0.03 1.153-0.03 1.74v0c0 0.16-0.013 0.33-0.04 0.51-0.033 0.18-0.05 0.35-0.05 0.51v0c-0.033 0.427-0.06 0.833-0.08 1.22-0.013 0.393-0.02 0.8-0.02 1.22v0c0 0.913 0.007 1.827 0.02 2.74 0.02 0.907 0.047 1.833 0.08 2.78v0c0.033 0.487 0.063 0.96 0.09 1.42 0.033 0.453 0.05 0.923 0.05 1.41v0c0 1.107-0.017 2.207-0.05 3.3-0.027 1.087-0.04 2.183-0.04 3.29v0c0 0.36-0.017 0.697-0.05 1.01-0.033 0.307-0.05 0.64-0.05 1v0c0 0.747 0.017 1.493 0.05 2.24 0.033 0.753 0.05 1.503 0.05 2.25v0c0 0.36-0.01 0.717-0.03 1.07-0.013 0.36-0.02 0.72-0.02 1.08v0c-0.167 0.26-0.28 0.487-0.34 0.68-0.067 0.193-0.263 0.29-0.59 0.29v0c-0.227-0.06-0.333-0.133-0.32-0.22 0.02-0.08-0.003-0.153-0.07-0.22v0c-0.293-0.027-0.513 0-0.66 0.08-0.147 0.08-0.317 0.153-0.51 0.22v0c-0.1-0.033-0.207-0.05-0.32-0.05-0.113 0-0.22 0-0.32 0v0c-0.067 0-0.13 0.023-0.19 0.07-0.067 0.047-0.213 0.07-0.44 0.07v0c-0.2 0.033-0.313 0.003-0.34-0.09-0.033-0.1-0.133-0.15-0.3-0.15v0c-0.16 0.1-0.347 0.173-0.56 0.22-0.213 0.047-0.417 0.07-0.61 0.07v0c-0.193-0.127-0.283-0.247-0.27-0.36 0.02-0.113-0.003-0.237-0.07-0.37v0c-0.033-0.067-0.09-0.157-0.17-0.27-0.08-0.113-0.153-0.203-0.22-0.27v0c0.067-0.453 0.113-0.86 0.14-1.22 0.033-0.353 0.05-0.743 0.05-1.17v0c0-0.847-0.03-1.677-0.09-2.49-0.067-0.813-0.1-1.643-0.1-2.49v0c0-0.26 0.033-0.537 0.1-0.83 0.06-0.293 0.09-0.603 0.09-0.93v0c-0.06-0.26-0.077-0.413-0.05-0.46 0.033-0.047 0.05-0.103 0.05-0.17v0c0-0.193-0.007-0.39-0.02-0.59-0.02-0.193-0.03-0.387-0.03-0.58v0c0-0.393 0.01-0.787 0.03-1.18 0.013-0.387 0.02-0.777 0.02-1.17v0c0-0.16-0.007-0.33-0.02-0.51-0.02-0.18-0.03-0.35-0.03-0.51v0c-0.027-0.293-0.033-0.603-0.02-0.93 0.013-0.327 0.02-0.653 0.02-0.98v0c0-1.56-0.023-3.107-0.07-4.64-0.047-1.527-0.07-3.07-0.07-4.63v0c0-0.787 0.04-1.56 0.12-2.32 0.08-0.767 0.12-1.54 0.12-2.32v0c0-0.1-0.033-0.23-0.1-0.39-0.06-0.167-0.123-0.283-0.19-0.35v0c-0.16 0-0.313-0.007-0.46-0.02-0.147-0.013-0.303-0.02-0.47-0.02v0c-0.36 0-0.7 0.047-1.02 0.14v0c-0.62 0.033-1.217 0.073-1.79 0.12-0.567 0.053-1.143 0.097-1.73 0.13v0c-0.393-0.033-0.63-0.043-0.71-0.03-0.08 0.02-0.17 0.03-0.27 0.03v0c-0.26 0-0.453-0.067-0.58-0.2v0-0.63c-0.193-0.393-0.277-0.607-0.25-0.64 0.033-0.033 0.05-0.08 0.05-0.14v0c0-0.1-0.09-0.207-0.27-0.32-0.173-0.113-0.26-0.3-0.26-0.56v0c-0.033-0.26-0.1-0.457-0.2-0.59-0.1-0.133-0.15-0.263-0.15-0.39v0c0-0.227 0.05-0.487 0.15-0.78v0c0.293-0.167 0.58-0.28 0.86-0.34 0.273-0.067 0.59-0.15 0.95-0.25v0c0.193-0.067 0.37-0.13 0.53-0.19 0.167-0.067 0.347-0.117 0.54-0.15v0c0.227-0.033 0.457-0.05 0.69-0.05 0.227 0 0.453-0.017 0.68-0.05v0c0.487-0.093 1-0.173 1.54-0.24 0.533-0.067 1.043-0.1 1.53-0.1v0c0.46 0 0.917 0.057 1.37 0.17 0.46 0.113 0.867 0.17 1.22 0.17v0c0.52 0 1.017 0.033 1.49 0.1 0.473 0.067 0.97 0.1 1.49 0.1v0c0.067 0 0.173 0.023 0.32 0.07 0.147 0.047 0.317 0.07 0.51 0.07v0h4.74c0.26 0.067 0.447 0.083 0.56 0.05 0.113-0.033 0.22-0.05 0.32-0.05v0c0.26 0 0.503 0.017 0.73 0.05 0.227 0.033 0.47 0.05 0.73 0.05v0c0.227 0 0.407-0.017 0.54-0.05v0c0.26 0.033 0.503 0.107 0.73 0.22 0.227 0.113 0.487 0.17 0.78 0.17v0c0.133 0.1 0.233 0.223 0.3 0.37 0.06 0.147 0.173 0.253 0.34 0.32zM644.67 0.59v0c-0.127-0.133-0.19-0.313-0.19-0.54v0c0-0.167 0.007-0.307 0.02-0.42 0.013-0.113 0.037-0.25 0.07-0.41v0c0.167-0.747 0.25-1.503 0.25-2.27 0-0.767 0.033-1.523 0.1-2.27v0c0.027-0.46 0.05-0.917 0.07-1.37 0.013-0.453 0.02-0.91 0.02-1.37v0c0-2.7-0.08-5.393-0.24-8.08-0.167-2.687-0.25-5.397-0.25-8.13v0c0-1.887 0.033-3.783 0.1-5.69 0.067-1.9 0.117-3.81 0.15-5.73v0c0.293-0.167 0.65-0.233 1.07-0.2 0.427 0.033 0.77-0.113 1.03-0.44v0c0.16-0.033 0.323-0.04 0.49-0.02 0.16 0.013 0.323 0.02 0.49 0.02v0c0.353 0 0.693-0.113 1.02-0.34 0.327-0.227 0.683-0.423 1.07-0.59v0c0.2 0.067 0.34 0.093 0.42 0.08 0.08-0.02 0.17-0.03 0.27-0.03v0c0.093 0 0.303 0.113 0.63 0.34 0.327 0.233 0.687 0.497 1.08 0.79 0.387 0.293 0.753 0.57 1.1 0.83 0.34 0.26 0.56 0.42 0.66 0.48v0c0.813 0.62 1.537 1.297 2.17 2.03 0.633 0.733 1.26 1.473 1.88 2.22v0c0.587 0.753 1.22 1.51 1.9 2.27 0.687 0.767 1.353 1.477 2 2.13v0c0.233 0.26 0.47 0.487 0.71 0.68 0.247 0.193 0.483 0.42 0.71 0.68v0c0.1 0.133 0.19 0.273 0.27 0.42 0.08 0.147 0.17 0.3 0.27 0.46v0c0.193 0.227 0.42 0.423 0.68 0.59 0.26 0.16 0.503 0.353 0.73 0.58v0c0.167 0.133 0.413 0.397 0.74 0.79 0.32 0.387 0.48 0.68 0.48 0.88v0c0 0.127-0.03 0.24-0.09 0.34-0.067 0.093-0.133 0.207-0.2 0.34v0c-0.033 0.1-0.05 0.247-0.05 0.44 0 0.193-0.017 0.323-0.05 0.39v0c-0.327 0.26-0.503 0.423-0.53 0.49-0.033 0.06-0.083 0.123-0.15 0.19v0c-0.1 0.133-0.223 0.24-0.37 0.32-0.147 0.08-0.25 0.203-0.31 0.37v0c-0.067 0.093-0.093 0.19-0.08 0.29 0.02 0.1-0.003 0.213-0.07 0.34v0c-0.16 0.36-0.42 0.703-0.78 1.03-0.36 0.32-0.67 0.677-0.93 1.07v0c-0.36 0.587-0.717 1.173-1.07 1.76-0.36 0.587-0.767 1.157-1.22 1.71v0c-0.2 0.26-0.403 0.51-0.61 0.75-0.213 0.247-0.42 0.5-0.62 0.76v0c-0.16 0.193-0.303 0.397-0.43 0.61-0.133 0.213-0.28 0.45-0.44 0.71v0c-0.36 0.453-0.703 0.9-1.03 1.34-0.327 0.44-0.667 0.887-1.02 1.34v0c-0.393 0.553-0.817 1.1-1.27 1.64-0.46 0.54-0.867 1.087-1.22 1.64v0c-0.36 0.587-0.737 1.123-1.13 1.61-0.387 0.487-0.81 0.957-1.27 1.41v0c-0.127 0.1-0.29 0.247-0.49 0.44-0.193 0.2-0.387 0.3-0.58 0.3v0c-0.133 0-0.24-0.05-0.32-0.15-0.08-0.1-0.203-0.15-0.37-0.15v0c-0.027 0-0.123 0.017-0.29 0.05-0.16 0.033-0.353 0.067-0.58 0.1v0l-0.88 0.1c-0.52 0.26-0.897 0.38-1.13 0.36-0.227-0.013-0.453-0.003-0.68 0.03v0c-0.133 0.033-0.24 0.08-0.32 0.14-0.08 0.067-0.17 0.1-0.27 0.1v0c-0.227 0-0.403-0.107-0.53-0.32-0.133-0.207-0.33-0.293-0.59-0.26zM659.32-20.51v0c0-0.16-0.153-0.387-0.46-0.68-0.313-0.293-0.55-0.507-0.71-0.64v0c-0.227-0.193-0.497-0.38-0.81-0.56-0.307-0.18-0.557-0.383-0.75-0.61v0c-0.167-0.193-0.323-0.397-0.47-0.61-0.147-0.213-0.3-0.417-0.46-0.61v0c-0.587-0.653-1.18-1.303-1.78-1.95-0.607-0.653-1.137-1.37-1.59-2.15v0c-0.293-0.193-0.57-0.42-0.83-0.68-0.26-0.26-0.57-0.473-0.93-0.64v0c-0.067 0.193-0.09 0.397-0.07 0.61 0.013 0.213 0.02 0.417 0.02 0.61v0c0 0.753-0.033 1.487-0.1 2.2-0.06 0.713-0.09 1.43-0.09 2.15v0c0 1.753 0.04 3.487 0.12 5.2 0.08 1.707 0.12 3.423 0.12 5.15v0c0 0.653 0.01 1.303 0.03 1.95 0.013 0.653 0.07 1.307 0.17 1.96v0c-0.067 0.193-0.1 0.37-0.1 0.53v0c0 0.167 0.033 0.38 0.1 0.64v0c0.26-0.167 0.48-0.37 0.66-0.61 0.173-0.247 0.343-0.483 0.51-0.71v0c0.553-0.72 1.097-1.443 1.63-2.17 0.54-0.733 1.087-1.477 1.64-2.23v0c0.36-0.487 0.727-0.967 1.1-1.44 0.373-0.467 0.74-0.963 1.1-1.49v0c0.093-0.127 0.247-0.353 0.46-0.68 0.213-0.327 0.427-0.66 0.64-1 0.207-0.34 0.4-0.657 0.58-0.95 0.18-0.293 0.27-0.49 0.27-0.59zM696.83-12.79v0c0.06 0.16 0.293 0.5 0.7 1.02 0.407 0.52 0.873 1.09 1.4 1.71 0.52 0.62 1.013 1.213 1.48 1.78 0.473 0.573 0.81 0.99 1.01 1.25v0c0.353 0.453 0.703 0.9 1.05 1.34 0.34 0.44 0.657 0.903 0.95 1.39v0l0.88 1.47c0.26 0.327 0.493 0.603 0.7 0.83 0.213 0.227 0.387 0.537 0.52 0.93v0c0.06 0.26 0.09 0.437 0.09 0.53v0c0 0.227-0.08 0.39-0.24 0.49v0c-0.26 0-0.397 0.04-0.41 0.12-0.02 0.087-0.093 0.16-0.22 0.22v0c-0.133 0.067-0.337 0.11-0.61 0.13-0.28 0.013-0.5 0.02-0.66 0.02v0c-0.293 0-0.66-0.007-1.1-0.02-0.44-0.02-0.79 0.02-1.05 0.12v0c-0.067 0.033-0.167 0.08-0.3 0.14-0.127 0.067-0.223 0.1-0.29 0.1v0c-0.26 0-0.447-0.04-0.56-0.12-0.113-0.08-0.267-0.137-0.46-0.17v0c-0.26-0.293-0.48-0.597-0.66-0.91-0.18-0.307-0.383-0.623-0.61-0.95v0c-0.227-0.227-0.457-0.43-0.69-0.61-0.227-0.18-0.42-0.383-0.58-0.61v0c-0.487-0.713-0.993-1.413-1.52-2.1-0.52-0.68-1.057-1.347-1.61-2v0c-0.26-0.36-0.537-0.687-0.83-0.98-0.293-0.293-0.57-0.617-0.83-0.97v0c-0.26-0.327-0.503-0.677-0.73-1.05-0.227-0.373-0.453-0.74-0.68-1.1v0c-0.2-0.293-0.46-0.677-0.78-1.15-0.327-0.473-0.687-0.943-1.08-1.41-0.393-0.473-0.783-0.923-1.17-1.35-0.393-0.42-0.72-0.743-0.98-0.97v0c-0.033-0.2-0.113-0.357-0.24-0.47-0.133-0.113-0.28-0.22-0.44-0.32v0c-0.067-0.16-0.14-0.313-0.22-0.46-0.08-0.147-0.12-0.3-0.12-0.46v0c0-0.227 0.047-0.44 0.14-0.64v0c0.067-0.127 0.11-0.247 0.13-0.36 0.013-0.113 0.053-0.237 0.12-0.37v0c0.16-0.36 0.38-0.71 0.66-1.05 0.273-0.34 0.493-0.707 0.66-1.1v0c0.06-0.093 0.09-0.2 0.09-0.32 0-0.113 0.033-0.217 0.1-0.31v0c0.067-0.26 0.207-0.48 0.42-0.66 0.207-0.18 0.377-0.383 0.51-0.61v0c0.16-0.26 0.313-0.53 0.46-0.81 0.147-0.273 0.303-0.573 0.47-0.9v0c0.487-0.813 0.997-1.603 1.53-2.37 0.54-0.767 1.087-1.54 1.64-2.32v0c0.427-0.653 0.843-1.28 1.25-1.88 0.407-0.6 0.82-1.21 1.24-1.83v0c0.227-0.293 0.47-0.637 0.73-1.03 0.26-0.387 0.547-0.777 0.86-1.17 0.307-0.387 0.623-0.743 0.95-1.07 0.327-0.327 0.653-0.587 0.98-0.78v0c0.487-0.033 0.81 0.07 0.97 0.31 0.167 0.247 0.413 0.37 0.74 0.37v0c0.42 0.1 0.697 0.23 0.83 0.39 0.127 0.167 0.273 0.33 0.44 0.49v0c0.453 0 0.817 0.08 1.09 0.24 0.28 0.167 0.55 0.413 0.81 0.74v0c-0.1 0.353-0.247 0.67-0.44 0.95-0.193 0.273-0.373 0.557-0.54 0.85v0c-0.26 0.133-0.447 0.313-0.56 0.54-0.113 0.227-0.283 0.407-0.51 0.54v0c-0.327 0.553-0.67 1.08-1.03 1.58-0.353 0.507-0.71 1.003-1.07 1.49v0c-0.193 0.293-0.397 0.553-0.61 0.78-0.213 0.233-0.4 0.48-0.56 0.74v0c-0.067 0.093-0.123 0.197-0.17 0.31-0.053 0.12-0.11 0.227-0.17 0.32v0c-0.393 0.62-0.817 1.2-1.27 1.74-0.46 0.533-0.883 1.127-1.27 1.78v0c-0.133 0.227-0.24 0.463-0.32 0.71-0.08 0.24-0.187 0.473-0.32 0.7v0c-0.127 0.2-0.313 0.46-0.56 0.78-0.247 0.327-0.483 0.677-0.71 1.05-0.227 0.38-0.43 0.74-0.61 1.08-0.18 0.34-0.27 0.623-0.27 0.85v0c0.033 0.167 0.237 0.487 0.61 0.96 0.373 0.467 0.797 0.97 1.27 1.51 0.473 0.533 0.923 1.037 1.35 1.51 0.42 0.473 0.697 0.76 0.83 0.86zM700.05-21.68v0c0.227 0.487 0.47 0.91 0.73 1.27v0c0.1 0.133 0.213 0.247 0.34 0.34 0.133 0.1 0.233 0.23 0.3 0.39v0c0.06 0.067 0.123 0.207 0.19 0.42 0.067 0.207 0.133 0.36 0.2 0.46v0c0.093 0.26 0.287 0.553 0.58 0.88 0.293 0.327 0.44 0.62 0.44 0.88v0c0 0.16-0.033 0.34-0.1 0.54-0.06 0.193-0.107 0.37-0.14 0.53v0c-0.033 0.2-0.05 0.403-0.05 0.61 0 0.213-0.067 0.403-0.2 0.57v0c-0.16 0.16-0.337 0.257-0.53 0.29-0.2 0.033-0.38 0.113-0.54 0.24v0c-0.067 0.067-0.163 0.18-0.29 0.34-0.133 0.167-0.263 0.347-0.39 0.54-0.133 0.193-0.257 0.38-0.37 0.56-0.113 0.18-0.17 0.32-0.17 0.42v0c-0.393 0.033-0.647 0.04-0.76 0.02-0.113-0.013-0.233-0.003-0.36 0.03v0c-0.167-0.167-0.34-0.307-0.52-0.42-0.18-0.113-0.4-0.22-0.66-0.32v0c-0.06-0.26-0.207-0.56-0.44-0.9-0.227-0.34-0.42-0.623-0.58-0.85v0l-0.34-0.44c-0.493-0.687-0.943-1.347-1.35-1.98-0.407-0.633-0.707-1.34-0.9-2.12v0c0.62-0.46 1.1-0.803 1.44-1.03 0.34-0.227 0.707-0.437 1.1-0.63 0.393-0.2 0.777-0.39 1.15-0.57 0.373-0.18 0.723-0.4 1.05-0.66v0c0.26 0 0.437 0.017 0.53 0.05 0.1 0.033 0.167 0.067 0.2 0.1 0.033 0.033 0.073 0.09 0.12 0.17 0.047 0.08 0.153 0.17 0.32 0.27zM738.63-37.01l0.1 0.05c0.16 0.587 0.32 1.163 0.48 1.73 0.167 0.567 0.363 1.13 0.59 1.69v0c0.487 0.06 0.787 0.107 0.9 0.14 0.113 0.033 0.253 0.083 0.42 0.15v0c0.36 0.847 0.58 1.75 0.66 2.71 0.08 0.96 0.2 1.897 0.36 2.81v0c0.62 0.813 1.07 1.683 1.35 2.61 0.273 0.927 0.59 1.863 0.95 2.81v0c0.1 0.32 0.163 0.523 0.19 0.61 0.033 0.08 0.05 0.153 0.05 0.22v0c0.2 0.553 0.397 1.12 0.59 1.7 0.193 0.587 0.403 1.157 0.63 1.71v0c0.1 0.293 0.207 0.58 0.32 0.86 0.113 0.273 0.22 0.54 0.32 0.8v0c0.1 0.327 0.19 0.66 0.27 1 0.08 0.347 0.17 0.683 0.27 1.01v0c0.227 0.647 0.47 1.297 0.73 1.95 0.26 0.653 0.52 1.303 0.78 1.95v0c0.1 0.227 0.287 0.733 0.56 1.52 0.28 0.78 0.567 1.6 0.86 2.46 0.293 0.867 0.56 1.663 0.8 2.39 0.247 0.733 0.37 1.183 0.37 1.35v0c0 0.26 0.023 0.527 0.07 0.8 0.047 0.28 0.087 0.567 0.12 0.86v0c-0.127 0.327-0.29 0.503-0.49 0.53-0.193 0.033-0.37 0.02-0.53-0.04v0c-0.167 0.06-0.323 0.123-0.47 0.19-0.147 0.067-0.283 0.133-0.41 0.2v0c-0.1 0.027-0.183 0.073-0.25 0.14-0.06 0.067-0.14 0.1-0.24 0.1v0c-0.393 0-0.647 0.04-0.76 0.12-0.113 0.08-0.283 0.12-0.51 0.12v0c-0.293-0.093-0.48-0.1-0.56-0.02-0.08 0.08-0.153 0.137-0.22 0.17v0c-0.133 0.067-0.28 0.1-0.44 0.1-0.16 0-0.323 0.017-0.49 0.05v0c-0.067-0.133-0.123-0.263-0.17-0.39-0.047-0.133-0.12-0.28-0.22-0.44v0c-0.36-0.52-0.613-1.027-0.76-1.52-0.147-0.487-0.267-0.877-0.36-1.17v0c-0.167-0.36-0.307-0.717-0.42-1.07-0.113-0.36-0.25-0.72-0.41-1.08v0c-0.193 0.067-0.373 0.14-0.54 0.22-0.16 0.08-0.29 0.187-0.39 0.32v0c-0.393 0-0.59 0.05-0.59 0.15 0 0.093-0.03 0.19-0.09 0.29v0c-0.2 0.067-0.357 0.13-0.47 0.19-0.113 0.067-0.3 0.083-0.56 0.05v0c-0.16 0.167-0.323 0.307-0.49 0.42-0.16 0.113-0.37 0.187-0.63 0.22v0c-0.26 0.26-0.53 0.48-0.81 0.66-0.273 0.18-0.59 0.22-0.95 0.12v0c-0.453 0.1-0.91 0.19-1.37 0.27-0.453 0.08-0.907 0.12-1.36 0.12v0c-0.527-0.16-0.853-0.307-0.98-0.44-0.133-0.127-0.33-0.19-0.59-0.19v0c0.033-0.46-0.063-0.77-0.29-0.93v0c0-0.1 0.007-0.257 0.02-0.47 0.02-0.207 0.063-0.343 0.13-0.41v0c0.42-0.193 0.663-0.407 0.73-0.64 0.067-0.227 0.247-0.373 0.54-0.44v0c0.06-0.127 0.133-0.247 0.22-0.36 0.08-0.113 0.153-0.237 0.22-0.37v0c0.16-0.067 0.297-0.113 0.41-0.14 0.113-0.033 0.203-0.133 0.27-0.3v0c0.16 0 0.403-0.103 0.73-0.31 0.327-0.213 0.54-0.387 0.64-0.52v0c0.26-0.093 0.423-0.183 0.49-0.27 0.06-0.08 0.14-0.153 0.24-0.22v0c0.327 0.033 0.537 0.003 0.63-0.09v0c0.26 0.127 0.553 0.19 0.88 0.19v0c0.133 0 0.247-0.007 0.34-0.02 0.1-0.02 0.217-0.03 0.35-0.03v0c0.26-0.26 0.593-0.43 1-0.51 0.407-0.08 0.74-0.25 1-0.51v0c-0.1-0.26-0.183-0.577-0.25-0.95-0.06-0.38-0.173-0.683-0.34-0.91v0c-0.067-0.42-0.17-0.827-0.31-1.22-0.147-0.387-0.27-0.76-0.37-1.12v0c-0.36-1.367-0.783-2.703-1.27-4.01-0.487-1.3-0.893-2.633-1.22-4v0c-0.067-0.16-0.14-0.33-0.22-0.51-0.08-0.18-0.153-0.35-0.22-0.51v0c-0.16 0.387-0.24 0.603-0.24 0.65 0 0.053-0.033 0.113-0.1 0.18v0c-0.033 0.16-0.067 0.297-0.1 0.41-0.033 0.113-0.083 0.253-0.15 0.42v0c-0.093 0.26-0.183 0.543-0.27 0.85-0.08 0.307-0.15 0.59-0.21 0.85v0c-0.167 0.553-0.313 1.133-0.44 1.74-0.133 0.6-0.28 1.193-0.44 1.78v0c-0.327 1.007-0.66 2.007-1 3-0.347 0.993-0.683 1.997-1.01 3.01v0c-0.06 0.453-0.133 0.803-0.22 1.05-0.08 0.24-0.16 0.483-0.24 0.73-0.08 0.24-0.147 0.477-0.2 0.71-0.047 0.227-0.07 0.403-0.07 0.53v0c-0.453 1.047-0.837 2.107-1.15 3.18-0.307 1.073-0.687 2.113-1.14 3.12v0c-0.133 0.067-0.247 0.15-0.34 0.25-0.1 0.093-0.217 0.14-0.35 0.14v0c-0.26 0-0.397-0.063-0.41-0.19-0.02-0.133-0.093-0.2-0.22-0.2v0c-0.133 0-0.247 0.027-0.34 0.08-0.1 0.047-0.2 0.103-0.3 0.17v0c-0.16-0.067-0.347-0.11-0.56-0.13-0.213-0.013-0.367-0.087-0.46-0.22v0c-0.227 0.167-0.457 0.25-0.69 0.25v0c-0.26 0-0.52-0.083-0.78-0.25v0c-0.193 0.067-0.387 0.1-0.58 0.1v0c-0.1 0-0.213-0.017-0.34-0.05-0.133-0.033-0.233-0.08-0.3-0.14v0c-0.033-0.133-0.05-0.263-0.05-0.39 0-0.133 0-0.28 0-0.44v0c0-0.327-0.03-0.573-0.09-0.74v0c0.587-1.66 1.157-3.343 1.71-5.05 0.553-1.707 1.107-3.44 1.66-5.2v0c0.287-0.813 0.57-1.61 0.85-2.39 0.273-0.78 0.543-1.577 0.81-2.39v0c0.127-0.46 0.24-0.893 0.34-1.3 0.093-0.407 0.223-0.803 0.39-1.19v0c0.26-0.847 0.527-1.703 0.8-2.57 0.28-0.86 0.533-1.713 0.76-2.56v0c0.133-0.1 0.213-0.213 0.24-0.34 0.033-0.133 0.083-0.28 0.15-0.44v0l-0.05-0.64c0.227-0.327 0.383-0.61 0.47-0.85 0.08-0.247 0.137-0.5 0.17-0.76v0c0.16-0.393 0.307-0.817 0.44-1.27 0.127-0.453 0.223-0.877 0.29-1.27v0c0.067-0.52 0.107-1.113 0.12-1.78 0.02-0.667 0.11-1.227 0.27-1.68v0c0.067-0.133 0.123-0.223 0.17-0.27 0.047-0.053 0.07-0.16 0.07-0.32v0c0.067-0.067 0.14-0.14 0.22-0.22 0.087-0.08 0.143-0.17 0.17-0.27v0c0.167-0.26 0.227-0.487 0.18-0.68-0.053-0.2-0.08-0.413-0.08-0.64v0c0.293-0.16 0.423-0.307 0.39-0.44-0.033-0.127-0.05-0.257-0.05-0.39v0c0-0.16 0.107-0.313 0.32-0.46 0.213-0.147 0.353-0.303 0.42-0.47v0c0.193 0.033 0.387 0.06 0.58 0.08 0.2 0.013 0.397 0.003 0.59-0.03v0c0.227 0.427 0.503 0.64 0.83 0.64zM774.57 0.59v0c-0.127-0.133-0.19-0.313-0.19-0.54v0c0-0.167 0.007-0.307 0.02-0.42 0.02-0.113 0.043-0.25 0.07-0.41v0c0.167-0.747 0.25-1.503 0.25-2.27 0-0.767 0.033-1.523 0.1-2.27v0c0.033-0.46 0.057-0.917 0.07-1.37 0.013-0.453 0.02-0.91 0.02-1.37v0c0-2.7-0.08-5.393-0.24-8.08-0.16-2.687-0.24-5.397-0.24-8.13v0c0-1.887 0.03-3.783 0.09-5.69 0.067-1.9 0.117-3.81 0.15-5.73v0c0.293-0.167 0.65-0.233 1.07-0.2 0.427 0.033 0.77-0.113 1.03-0.44v0c0.16-0.033 0.323-0.04 0.49-0.02 0.16 0.013 0.323 0.02 0.49 0.02v0c0.353 0 0.693-0.113 1.02-0.34 0.327-0.227 0.687-0.423 1.08-0.59v0c0.193 0.067 0.33 0.093 0.41 0.08 0.08-0.02 0.17-0.03 0.27-0.03v0c0.1 0 0.31 0.113 0.63 0.34 0.327 0.233 0.687 0.497 1.08 0.79 0.387 0.293 0.753 0.57 1.1 0.83 0.34 0.26 0.56 0.42 0.66 0.48v0c0.813 0.62 1.537 1.297 2.17 2.03 0.633 0.733 1.26 1.473 1.88 2.22v0c0.587 0.753 1.22 1.51 1.9 2.27 0.687 0.767 1.357 1.477 2.01 2.13v0c0.227 0.26 0.46 0.487 0.7 0.68 0.247 0.193 0.483 0.42 0.71 0.68v0c0.1 0.133 0.19 0.273 0.27 0.42 0.08 0.147 0.17 0.3 0.27 0.46v0c0.193 0.227 0.42 0.423 0.68 0.59 0.26 0.16 0.503 0.353 0.73 0.58v0c0.167 0.133 0.413 0.397 0.74 0.79 0.32 0.387 0.48 0.68 0.48 0.88v0c0 0.127-0.03 0.24-0.09 0.34-0.067 0.093-0.133 0.207-0.2 0.34v0c-0.033 0.1-0.05 0.247-0.05 0.44 0 0.193-0.017 0.323-0.05 0.39v0c-0.32 0.26-0.497 0.423-0.53 0.49-0.033 0.06-0.083 0.123-0.15 0.19v0c-0.1 0.133-0.223 0.24-0.37 0.32-0.147 0.08-0.25 0.203-0.31 0.37v0c-0.067 0.093-0.093 0.19-0.08 0.29 0.02 0.1-0.003 0.213-0.07 0.34v0c-0.16 0.36-0.42 0.703-0.78 1.03-0.36 0.32-0.67 0.677-0.93 1.07v0c-0.36 0.587-0.717 1.173-1.07 1.76-0.36 0.587-0.767 1.157-1.22 1.71v0c-0.2 0.26-0.403 0.51-0.61 0.75-0.213 0.247-0.417 0.5-0.61 0.76v0c-0.167 0.193-0.313 0.397-0.44 0.61-0.133 0.213-0.28 0.45-0.44 0.71v0c-0.36 0.453-0.703 0.9-1.03 1.34-0.327 0.44-0.667 0.887-1.02 1.34v0c-0.393 0.553-0.817 1.1-1.27 1.64-0.46 0.54-0.867 1.087-1.22 1.64v0c-0.36 0.587-0.737 1.123-1.13 1.61-0.387 0.487-0.81 0.957-1.27 1.41v0c-0.127 0.1-0.287 0.247-0.48 0.44-0.2 0.2-0.397 0.3-0.59 0.3v0c-0.133 0-0.24-0.05-0.32-0.15-0.08-0.1-0.2-0.15-0.36-0.15v0c-0.033 0-0.133 0.017-0.3 0.05-0.16 0.033-0.353 0.067-0.58 0.1v0l-0.88 0.1c-0.52 0.26-0.897 0.38-1.13 0.36-0.227-0.013-0.453-0.003-0.68 0.03v0c-0.127 0.033-0.233 0.08-0.32 0.14-0.08 0.067-0.167 0.1-0.26 0.1v0c-0.233 0-0.413-0.107-0.54-0.32-0.133-0.207-0.33-0.293-0.59-0.26zM789.22-20.51v0c0-0.16-0.153-0.387-0.46-0.68-0.313-0.293-0.55-0.507-0.71-0.64v0c-0.227-0.193-0.497-0.38-0.81-0.56-0.307-0.18-0.557-0.383-0.75-0.61v0c-0.167-0.193-0.323-0.397-0.47-0.61-0.147-0.213-0.3-0.417-0.46-0.61v0c-0.587-0.653-1.18-1.303-1.78-1.95-0.607-0.653-1.137-1.37-1.59-2.15v0c-0.293-0.193-0.57-0.42-0.83-0.68-0.26-0.26-0.57-0.473-0.93-0.64v0c-0.067 0.193-0.09 0.397-0.07 0.61 0.013 0.213 0.02 0.417 0.02 0.61v0c0 0.753-0.03 1.487-0.09 2.2-0.067 0.713-0.1 1.43-0.1 2.15v0c0 1.753 0.04 3.487 0.12 5.2 0.08 1.707 0.12 3.423 0.12 5.15v0c0 0.653 0.01 1.303 0.03 1.95 0.013 0.653 0.07 1.307 0.17 1.96v0c-0.067 0.193-0.1 0.37-0.1 0.53v0c0 0.167 0.033 0.38 0.1 0.64v0c0.26-0.167 0.48-0.37 0.66-0.61 0.173-0.247 0.343-0.483 0.51-0.71v0c0.553-0.72 1.097-1.443 1.63-2.17 0.54-0.733 1.087-1.477 1.64-2.23v0c0.36-0.487 0.727-0.967 1.1-1.44 0.373-0.467 0.74-0.963 1.1-1.49v0c0.093-0.127 0.247-0.353 0.46-0.68 0.213-0.327 0.427-0.66 0.64-1 0.207-0.34 0.4-0.657 0.58-0.95 0.18-0.293 0.27-0.49 0.27-0.59z" fill="#ffffff" fill-rule="nonzero" stroke="none" stroke-width="1" stroke-linecap="butt" stroke-linejoin="miter" stroke-miterlimit="10" stroke-dasharray="" stroke-dashoffset="0" font-family="none" font-weight="none" font-size="none" text-anchor="none" style="mix-blend-mode: normal" data-fill-palette-color="secondary" id="text-1"></path></g></g><g transform="matrix(1,0,0,1,29.33176500000002,64.58801998163716)"><svg viewBox="0 0 316.41599999999994 111.16481788271695" height="111.16481788271695" width="316.41599999999994"><g><svg viewBox="0 0 317.99807999999996 111.72064197213052" height="111.16481788271695" width="316.41599999999994"><g><rect width="317.99807999999996" height="3.421855706963127" x="0" y="61.3967535312755" fill="#ffffff" opacity="1" stroke-width="0" stroke="transparent" fill-opacity="1" class="rect-qz-0" data-fill-palette-color="secondary" rx="1%" id="qz-0" data-palette-color="#ffffff"></rect></g><g transform="matrix(1,0,0,1,0.7910399999999811,73.77634669102167)"><svg viewBox="0 0 316.416 37.94429528110886" height="37.94429528110886" width="316.416"><g id="textblocktransform"><svg viewBox="0 0 316.416 37.94429528110886" height="37.94429528110886" width="316.416" id="textblock"><g><svg viewBox="0 0 316.416 37.94429528110886" height="37.94429528110886" width="316.416"><g transform="matrix(1,0,0,1,0,0)"><svg width="316.416" viewBox="5 -28.75 320.14 38.5" height="37.94429528110886" data-palette-color="#ffffff"><g class="wordmark-text-0" data-fill-palette-color="primary" id="text-0"><path d="M5 0L5-28.75 21-28.75 21-23.1 11.3-23.1 11.3-5.85 21-5.85 21 0 5 0ZM39.45-3.4L39.45-25.3 33.8-28.75 23.45-28.75 23.45-23.1 33.15-23.1 33.15-5.85 23.45-5.85 23.45 0 33.8 0 39.45-3.4ZM78.4-28.75L78.4-3.4 72.75 0 62.4 0 62.4-5.65 72.1-5.65 72.1-28.75 78.4-28.75ZM43.95-9.1L50.45-9.1 50.45-5.65 59.95-5.65 59.95 0 49.8 0 43.95-3.4 43.95-9.1Z" fill="#ffffff" data-fill-palette-color="primary"></path><path d="M98.4-28.75L98.4-28.75 114.4-28.75 114.4-22.85 104.7-22.85 104.7-17.2 114.4-17.2 114.4-11.35 104.7-11.35 104.7 0 98.4 0 98.4-28.75ZM132.85 0L132.85 0 132.85-11.9 128.15-14.35 132.85-16.6 132.85-25.3 126.95-28.75 116.65-28.75 116.65-22.85 126.55-22.85 126.55-17.2 116.65-17.2 116.65-11.35 126.55-11.35 126.55 0 132.85 0ZM140.35-3.4L140.35-9.75 146.05-13.2 154.25-13.2 154.25-9.35 146.7-9.35 146.7-5.25 154.25-5.25 154.25 0.05 146.05 0.05 140.35-3.4ZM146.7-15.05L140.35-15.05 140.35-18.5 146.05-22 154.25-22 154.25-17.3 146.7-17.3 146.7-15.05ZM170.35 0.05L170.35-18.5 164.65-22 156.45-22 156.45-17.3 164-17.3 164-13.2 156.45-13.2 156.45-9.35 164-9.35 164-5.25 156.65-5.25 156.65 0.05 170.35 0.05ZM179.84-0.05L179.84-22 186.19-22 186.19-19.85 193.59-22 193.59-17.3 186.19-17.3 186.19-0.05 179.84-0.05ZM209.79-0.05L209.79-18.55 203.89-22 195.99-22 195.99-17.3 203.54-17.3 203.54-0.05 209.79-0.05ZM224.74 2.25L218.29 2.25 218.29 6.3 224.14 9.75 232.04 9.75 232.04 4.5 224.74 4.5 224.74 2.25ZM218.29-6.3L218.29-18.55 224.14-22 232.04-22 232.04-17.2 224.64-17.2 224.64-6.85 232.04-6.85 232.04-2.8 224.14-2.8 218.29-6.3ZM248.34 6.3L248.34-22 234.54-22 234.54-17.2 241.99-17.2 241.99-6.85 234.54-6.85 234.54-2.8 241.99-2.8 241.99 4.5 234.54 4.5 234.54 9.75 242.49 9.75 248.34 6.3ZM256.84-3.4L256.84-9.75 262.54-13.2 270.74-13.2 270.74-9.35 263.19-9.35 263.19-5.25 270.74-5.25 270.74 0.05 262.54 0.05 256.84-3.4ZM263.19-15.05L256.84-15.05 256.84-18.5 262.54-22 270.74-22 270.74-17.3 263.19-17.3 263.19-15.05ZM286.84 0.05L286.84-18.5 281.14-22 272.94-22 272.94-17.3 280.49-17.3 280.49-13.2 272.94-13.2 272.94-9.35 280.49-9.35 280.49-5.25 273.14-5.25 273.14 0.05 286.84 0.05ZM325.14-9.7L325.14-3.45 319.44 0 311.39 0 311.39-5.25 319.09-5.25 319.09-9.3 311.54-9.3 311.54-13.2 319.44-13.2 325.14-9.7ZM295.34-12.75L295.34-18.4 301.04-21.85 309.14-21.85 309.14-17.2 301.64-17.2 301.64-13.2 309.14-13.2 309.14-9.3 301.04-9.3 295.34-12.75ZM295.34-6.95L301.64-6.95 301.64-5.25 309.14-5.25 309.14 0 301.04 0 295.34-3.45 295.34-6.95ZM325.14-15.05L318.89-15.05 318.89-17.2 311.39-17.2 311.39-21.85 319.44-21.85 325.14-18.4 325.14-15.05Z" fill="#e33e33" data-fill-palette-color="tertiary"></path></g></svg></g></svg></g></svg></g></svg></g><g transform="matrix(1,0,0,1,105.72531712842795,0)"><svg viewBox="0 0 106.54744574314408 52.43901607849244" height="52.43901607849244" width="106.54744574314408"><g><svg xmlns="http://www.w3.org/2000/svg" xmlns:xlink="http://www.w3.org/1999/xlink" version="1.1" x="8" y="0" viewBox="6.184 23.54299999999999 87.315 50.56700000000001" enable-background="new 0 0 100 100" xml:space="preserve" height="52.43901607849244" width="90.54744574314408" class="icon-icon-0" data-fill-palette-color="accent" id="icon-0"><rect x="6.184" y="70.633" width="33.843" height="3.477" fill="#ffffff" data-fill-palette-color="accent"></rect><rect x="59.655" y="70.633" width="33.844" height="3.477" fill="#ffffff" data-fill-palette-color="accent"></rect><path d="M70.228 54.889c-0.382-0.779-0.847-1.521-1.393-2.205-1.662-2.086-4.007-3.591-6.6-4.218-0.955-0.23-1.93-0.338-2.91-0.338-0.313 0-0.628 0-0.941 0-1.462 0-2.926 0-4.389 0-1.969 0-3.937 0-5.904 0-1.741 0-3.483 0-5.224 0-0.783 0-1.565 0-2.349 0-2.629 0-5.216 0.867-7.308 2.458-0.927 0.705-1.746 1.543-2.432 2.477l0 0 0 0c-0.367 0.501-0.694 1.03-0.981 1.58l-8.459 13.612h11.313l4.591-8.003v8.003h11.185 1.372H62.63v-7.866l4.591 7.866h11.313L70.228 54.889zM49.799 55.474l0.014-0.001-0.014 0.123V55.474z" fill="#ffffff" data-fill-palette-color="accent"></path><path d="M58.275 38.368c0 2.339-0.921 4.646-2.598 6.286-0.797 0.779-1.749 1.395-2.795 1.784-0.529 0.198-1.08 0.336-1.638 0.412-0.468 0.063-0.936 0.07-1.406 0.07-1.066 0-2.107-0.17-3.099-0.579-1.029-0.425-1.962-1.072-2.732-1.877-1.563-1.631-2.41-3.853-2.41-6.105 0-1.25 0-2.501 0-3.752 0-0.693 0-1.385 0-2.078 0-0.645 0.017-1.288 0.122-1.928 0.377-2.261 1.641-4.354 3.531-5.666 0.919-0.638 1.972-1.08 3.074-1.274 0.493-0.087 0.989-0.118 1.49-0.118 0.467 0 0.931 0.004 1.396 0.065 2.245 0.295 4.254 1.607 5.528 3.464 0.655 0.956 1.112 2.042 1.35 3.178 0.147 0.71 0.187 1.428 0.187 2.15 0 1.481 0 2.959 0 4.44C58.275 37.348 58.275 37.857 58.275 38.368z" fill="#ffffff" data-fill-palette-color="accent"></path><path d="M39.25 39.944L39.25 39.944c-2.45 0-4.438-1.987-4.438-4.438v-0.258c0-2.451 1.987-4.438 4.438-4.438l0 0" fill="#ffffff" data-fill-palette-color="accent"></path><path d="M60.623 30.336L60.623 30.336c2.45 0 4.438 1.987 4.438 4.438v0.258c0 2.451-1.987 4.438-4.438 4.438l0 0" fill="#ffffff" data-fill-palette-color="accent"></path></svg></g></svg></g><g><rect width="44.49882112842794" height="3.421855706963127" y="48.017160371529314" x="212.272762871572" fill="#ffffff" data-fill-palette-color="secondary"></rect><rect width="44.49882112842794" height="3.421855706963127" y="48.017160371529314" x="61.226496" fill="#ffffff" data-fill-palette-color="secondary"></rect></g></svg></g></svg></g></svg></g><defs></defs></svg><rect width="375.07953" height="240.34085784599125" fill="none" stroke="none" visibility="hidden"></rect></g></svg></g></svg>